<svg width="16" height="20" viewBox="0 0 16 20" fill="none" xmlns="http://www.w3.org/2000/svg">
<path d="M15.7864 5.01339L10.8955 0.209821C10.7591 0.0758929 10.575 0 10.3818 0H0.727273C0.325 0 0 0.319196 0 0.714286V19.2857C0 19.6808 0.325 20 0.727273 20H15.2727C15.675 20 16 19.6808 16 19.2857V5.52009C16 5.33036 15.9227 5.14732 15.7864 5.01339ZM14.3227 5.84821H10.0455V1.64732L14.3227 5.84821ZM14.3636 18.3929H1.63636V1.60714H8.5V6.42857C8.5 6.67721 8.60057 6.91567 8.77958 7.09148C8.95859 7.2673 9.20138 7.36607 9.45455 7.36607H14.3636V18.3929ZM8.72727 9.10714C8.72727 9.00893 8.64545 8.92857 8.54545 8.92857H7.45455C7.35455 8.92857 7.27273 9.00893 7.27273 9.10714V11.5179H4.81818C4.71818 11.5179 4.63636 11.5982 4.63636 11.6964V12.7679C4.63636 12.8661 4.71818 12.9464 4.81818 12.9464H7.27273V15.3571C7.27273 15.4554 7.35455 15.5357 7.45455 15.5357H8.54545C8.64545 15.5357 8.72727 15.4554 8.72727 15.3571V12.9464H11.1818C11.2818 12.9464 11.3636 12.8661 11.3636 12.7679V11.6964C11.3636 11.5982 11.2818 11.5179 11.1818 11.5179H8.72727V9.10714Z" fill="#89BB2A"/>
</svg>
