<svg width="8" height="6" viewBox="0 0 8 6" fill="none" xmlns="http://www.w3.org/2000/svg">
<path d="M3.09663 0.359551C3.19048 0.24701 3.30791 0.15647 3.44063 0.0943379C3.57334 0.0322061 3.71809 6.50091e-07 3.86463 6.75713e-07C4.01116 7.01334e-07 4.15591 0.0322062 4.28862 0.0943381C4.42134 0.15647 4.53878 0.24701 4.63263 0.359551L7.49763 3.79755C7.61923 3.94355 7.69673 4.12118 7.72104 4.30963C7.74534 4.49809 7.71545 4.68957 7.63487 4.86165C7.55428 5.03373 7.42634 5.17929 7.26602 5.28128C7.1057 5.38327 6.91964 5.43748 6.72962 5.43755L0.999625 5.43755C0.809611 5.43748 0.623549 5.38327 0.463229 5.28128C0.302909 5.17928 0.174966 5.03372 0.0943817 4.86164C0.0137978 4.68956 -0.0160911 4.49809 0.00821495 4.30963C0.032521 4.12118 0.110016 3.94355 0.231625 3.79755L3.09663 0.359551Z" fill="#BCBCBC"/>
</svg>
