<svg width="12" height="13" viewBox="0 0 12 13" fill="none" xmlns="http://www.w3.org/2000/svg">
<path d="M11.5 6.11401C11.5 5.84839 11.3984 5.59058 11.2109 5.41089L6.125 0.324951C5.9375 0.13745 5.67969 0.0280755 5.41406 0.0280755C5.14844 0.0280755 4.89844 0.13745 4.71094 0.324951L4.125 0.910889C3.9375 1.09058 3.82812 1.34839 3.82812 1.61401C3.82812 1.87964 3.9375 2.13745 4.125 2.31714L6.41406 4.61401H0.914063C0.351563 4.61401 0 5.08276 0 5.61401V6.61401C0 7.14526 0.351563 7.61401 0.914063 7.61401H6.41406L4.125 9.90308C3.9375 10.0906 3.82812 10.3484 3.82812 10.614C3.82812 10.8796 3.9375 11.1375 4.125 11.325L4.71094 11.9109C4.89844 12.0906 5.14844 12.2 5.41406 12.2C5.67969 12.2 5.9375 12.0906 6.125 11.9109L11.2109 6.82495C11.3984 6.63745 11.5 6.37964 11.5 6.11401Z" fill="#89BB2A"/>
</svg>
