<svg width="16" height="16" viewBox="0 0 16 16" fill="none" xmlns="http://www.w3.org/2000/svg">
<path d="M14.6667 0.533333H13.6V0.266667C13.6 0.1194 13.4806 0 13.3333 0C13.1861 0 13.0667 0.1194 13.0667 0.266667V0.533333H10.9333V0.266667C10.9333 0.1194 10.8139 0 10.6667 0C10.5194 0 10.4 0.1194 10.4 0.266667V0.533333H8.26667V0.266667C8.26667 0.1194 8.14727 0 8 0C7.85273 0 7.73333 0.1194 7.73333 0.266667V0.533333H5.6V0.266667C5.6 0.1194 5.4806 0 5.33333 0C5.18607 0 5.06667 0.1194 5.06667 0.266667V0.533333H2.93333V0.266667C2.93333 0.1194 2.81393 0 2.66667 0C2.5194 0 2.4 0.1194 2.4 0.266667V0.533333H1.33333C0.597333 0.5342 0.000866667 1.13067 0 1.86667V14.6667C0.000866667 15.4027 0.597333 15.9991 1.33333 16H14.6667C15.4027 15.9991 15.9991 15.4027 16 14.6667V1.86667C15.9991 1.13067 15.4027 0.5342 14.6667 0.533333ZM15.4667 14.6667C15.4667 15.1085 15.1085 15.4667 14.6667 15.4667H1.33333C0.8915 15.4667 0.533333 15.1085 0.533333 14.6667V3.73333H15.4667V14.6667ZM15.4667 3.2H0.533333V1.86667C0.533333 1.42483 0.8915 1.06667 1.33333 1.06667H2.4V1.67413C2.1449 1.8214 2.0575 2.1476 2.2048 2.40267C2.35207 2.65777 2.67823 2.74517 2.93333 2.5979C3.18843 2.45063 3.27583 2.12443 3.12853 1.86937C3.08173 1.7883 3.0144 1.72097 2.93333 1.67417V1.06667H5.06667V1.67413C4.81157 1.8214 4.72417 2.1476 4.87147 2.40267C5.01873 2.65777 5.34493 2.74517 5.6 2.59787C5.8551 2.4506 5.9425 2.1244 5.7952 1.86933C5.7484 1.78827 5.68107 1.72093 5.6 1.67413V1.06667H7.73333V1.67413C7.47823 1.8214 7.39083 2.1476 7.53813 2.40267C7.6854 2.65777 8.0116 2.74517 8.26667 2.59787C8.52177 2.4506 8.60917 2.1244 8.46187 1.86933C8.41507 1.78827 8.34773 1.72093 8.26667 1.67413V1.06667H10.4V1.67413C10.1449 1.8214 10.0575 2.1476 10.2048 2.40267C10.3521 2.65777 10.6783 2.74517 10.9333 2.59787C11.1884 2.4506 11.2758 2.1244 11.1285 1.86933C11.0817 1.78827 11.0144 1.72093 10.9333 1.67413V1.06667H13.0667V1.67413C12.8116 1.8214 12.7242 2.1476 12.8715 2.40267C13.0187 2.65777 13.3449 2.74517 13.6 2.59787C13.8551 2.4506 13.9425 2.1244 13.7952 1.86933C13.7484 1.78827 13.6811 1.72093 13.6 1.67413V1.06667H14.6667C15.1085 1.06667 15.4667 1.42483 15.4667 1.86667V3.2Z" fill="#BCBCBC"/>
<path d="M14.4007 5.6001H1.60065C1.45338 5.6001 1.33398 5.7195 1.33398 5.86676V14.4001C1.33398 14.5474 1.45338 14.6668 1.60065 14.6668H14.4007C14.5479 14.6668 14.6673 14.5474 14.6673 14.4001V5.86676C14.6673 5.7195 14.5479 5.6001 14.4007 5.6001ZM4.53398 14.1334H1.86732V12.5334H4.53398V14.1334ZM4.53398 12.0001H1.86732V10.4001H4.53398V12.0001ZM4.53398 9.86676H1.86732V8.26676H4.53398V9.86676ZM4.53398 7.73343H1.86732V6.13343H4.53398V7.73343ZM7.73398 14.1334H5.06732V12.5334H7.73398V14.1334ZM7.73398 12.0001H5.06732V10.4001H7.73398V12.0001ZM7.73398 9.86676H5.06732V8.26676H7.73398V9.86676ZM7.73398 7.73343H5.06732V6.13343H7.73398V7.73343ZM10.934 14.1334H8.26732V12.5334H10.934V14.1334ZM10.934 12.0001H8.26732V10.4001H10.934V12.0001ZM10.934 9.86676H8.26732V8.26676H10.934V9.86676ZM10.934 7.73343H8.26732V6.13343H10.934V7.73343ZM14.134 14.1334H11.4673V12.5334H14.134V14.1334ZM14.134 12.0001H11.4673V10.4001H14.134V12.0001ZM14.134 9.86676H11.4673V8.26676H14.134V9.86676ZM14.134 7.73343H11.4673V6.13343H14.134V7.73343Z" fill="#BCBCBC"/>
</svg>
