<svg width="20" height="20" viewBox="0 0 20 20" fill="none" xmlns="http://www.w3.org/2000/svg">
<path d="M5.96094 6.32495C7.07812 5.20776 8.41016 4.64917 9.95703 4.64917C11.5326 4.64917 12.8789 5.20776 13.9961 6.32495C15.1419 7.47078 15.7148 8.80282 15.7148 10.321C15.7148 11.8679 15.1562 13.2 14.0391 14.3171C12.9219 15.4057 11.5755 15.95 10 15.95C8.96875 15.95 8.00911 15.6921 7.12109 15.1765L6.90625 15.0476L4.75781 15.6062L5.31641 13.5437L5.1875 13.3289C4.61458 12.4122 4.32812 11.4096 4.32812 10.321C4.32812 8.74552 4.8724 7.41349 5.96094 6.32495ZM13.3516 12.7273C13.4661 12.3263 13.4948 12.0541 13.4375 11.9109C13.4089 11.8822 13.2943 11.825 13.0938 11.739C12.4635 11.3953 12.0768 11.2091 11.9336 11.1804C11.7617 11.0945 11.6328 11.1231 11.5469 11.2664C11.4609 11.4096 11.2891 11.6244 11.0312 11.9109C10.9453 12.0255 10.8164 12.0398 10.6445 11.9539C10.0716 11.6674 9.61328 11.3953 9.26953 11.1375C8.95443 10.851 8.63932 10.45 8.32422 9.93433C8.29557 9.7911 8.28125 9.71948 8.28125 9.71948C8.3099 9.69084 8.38151 9.6049 8.49609 9.46167C8.63932 9.31844 8.75391 9.16089 8.83984 8.98901C8.89714 8.90308 8.89714 8.81714 8.83984 8.7312C8.8112 8.70256 8.76823 8.61662 8.71094 8.47339C8.65365 8.30151 8.58203 8.11532 8.49609 7.91479C8.41016 7.68563 8.33854 7.52808 8.28125 7.44214C8.22396 7.27026 8.10938 7.17 7.9375 7.14136C7.85156 7.14136 7.73698 7.14136 7.59375 7.14136C7.42188 7.14136 7.26432 7.21297 7.12109 7.3562C6.72005 7.78589 6.51953 8.25854 6.51953 8.77417C6.51953 9.34709 6.76302 9.93433 7.25 10.5359C7.25 10.5359 7.26432 10.5789 7.29297 10.6648C7.35026 10.7221 7.39323 10.7794 7.42188 10.8367C7.47917 10.894 7.55078 10.9799 7.63672 11.0945C7.72266 11.2091 7.80859 11.3236 7.89453 11.4382C8.00911 11.5528 8.1237 11.6674 8.23828 11.782C8.38151 11.8966 8.52474 12.0255 8.66797 12.1687C8.8112 12.2833 8.95443 12.3979 9.09766 12.5125C9.24089 12.627 9.39844 12.7416 9.57031 12.8562C9.77083 12.9421 9.95703 13.0281 10.1289 13.114C10.9883 13.4864 11.6758 13.6296 12.1914 13.5437C12.3633 13.5151 12.5781 13.4291 12.8359 13.2859C13.0938 13.114 13.2656 12.9278 13.3516 12.7273ZM17.5625 0.739014C18.1354 0.739014 18.6224 0.939535 19.0234 1.34058C19.4245 1.74162 19.625 2.2286 19.625 2.80151V17.9265C19.625 18.4994 19.4245 18.9864 19.0234 19.3875C18.6224 19.7885 18.1354 19.989 17.5625 19.989H2.4375C1.86458 19.989 1.3776 19.7885 0.976562 19.3875C0.575521 18.9864 0.375 18.4994 0.375 17.9265V2.80151C0.375 2.2286 0.575521 1.74162 0.976562 1.34058C1.3776 0.939535 1.86458 0.739014 2.4375 0.739014H17.5625ZM10 17.1101C11.8906 17.1101 13.5091 16.4513 14.8555 15.1335C16.2018 13.7872 16.875 12.183 16.875 10.321C16.875 8.48771 16.1875 6.86922 14.8125 5.46558C13.4948 4.14787 11.8906 3.48901 10 3.48901C8.10938 3.48901 6.49089 4.16219 5.14453 5.50854C3.82682 6.82625 3.16797 8.4161 3.16797 10.2781C3.16797 11.5098 3.46875 12.6557 4.07031 13.7156L3.125 17.239L6.73438 16.2937C7.73698 16.838 8.82552 17.1101 10 17.1101Z" fill="#89BB2A"/>
</svg>
