<svg width="16" height="13" viewBox="0 0 16 13" fill="none" xmlns="http://www.w3.org/2000/svg">
<path fill-rule="evenodd" clip-rule="evenodd" d="M13.4949 0.434898C13.7693 0.157316 14.1396 0.00109357 14.5258 5.71947e-06C14.9121 -0.00108213 15.2833 0.153052 15.5591 0.429085C15.8349 0.705117 15.9932 1.08087 15.9998 1.47511C16.0064 1.86934 15.8607 2.25038 15.5943 2.53585L7.7694 12.5204C7.63491 12.6682 7.4726 12.7869 7.29217 12.8693C7.11173 12.9516 6.91688 12.996 6.71926 12.9997C6.52164 13.0035 6.32531 12.9665 6.14201 12.891C5.95871 12.8155 5.79221 12.7031 5.65245 12.5604L0.4679 7.26599C0.323464 7.12861 0.207616 6.96293 0.127267 6.77885C0.0469168 6.59477 0.00371152 6.39605 0.000228786 6.19455C-0.00325395 5.99306 0.0330573 5.79291 0.106996 5.60605C0.180934 5.41918 0.290985 5.24944 0.430583 5.10694C0.570181 4.96444 0.736467 4.8521 0.91952 4.77662C1.10257 4.70114 1.29864 4.66408 1.49603 4.66763C1.69343 4.67119 1.88809 4.71529 2.06842 4.79731C2.24876 4.87933 2.41105 4.99759 2.54564 5.14503L6.65016 9.33293L13.4577 0.478918C13.4699 0.463419 13.4829 0.448716 13.4969 0.434898H13.4949Z" fill="white"/>
</svg>
