<svg width="16" height="16" viewBox="0 0 16 16" fill="none" xmlns="http://www.w3.org/2000/svg">
<path d="M8 0C3.58173 0 0 3.58173 0 8C0 12.4183 3.58173 16 8 16C12.4183 16 16 12.4183 16 8C15.995 3.5838 12.4162 0.005 8 0ZM8 15.4667C3.87627 15.4667 0.533333 12.1237 0.533333 8C0.533333 3.87627 3.87627 0.533333 8 0.533333C12.1237 0.533333 15.4667 3.87627 15.4667 8C15.462 12.1218 12.1218 15.462 8 15.4667Z" fill="#BCBCBC"/>
<path d="M7.99967 1.33325C4.31777 1.33325 1.33301 4.31802 1.33301 7.99992C1.33301 11.6818 4.31777 14.6666 7.99967 14.6666C11.6816 14.6666 14.6663 11.6818 14.6663 7.99992C14.6622 4.31972 11.6799 1.33735 7.99967 1.33325ZM7.99967 14.1333C4.61234 14.1333 1.86634 11.3873 1.86634 7.99992C1.86634 4.61259 4.61234 1.86659 7.99967 1.86659C11.387 1.86659 14.133 4.61259 14.133 7.99992C14.1292 11.3857 11.3854 14.1294 7.99967 14.1333Z" fill="#BCBCBC"/>
<path d="M8.26673 2.66675H7.7334V3.20008H8.26673V2.66675Z" fill="#BCBCBC"/>
<path d="M8.26673 12.8H7.7334V13.3334H8.26673V12.8Z" fill="#BCBCBC"/>
<path d="M5.56319 3.24826L5.10156 3.51477L5.36822 3.97631L5.82985 3.7098L5.56319 3.24826Z" fill="#BCBCBC"/>
<path d="M10.6296 12.0222L10.168 12.2887L10.4346 12.7502L10.8963 12.4837L10.6296 12.0222Z" fill="#BCBCBC"/>
<path d="M3.51376 5.1026L3.24707 5.56445L3.70895 5.8311L3.97563 5.36924L3.51376 5.1026Z" fill="#BCBCBC"/>
<path d="M12.2891 10.17L12.0225 10.6318L12.4843 10.8985L12.751 10.4366L12.2891 10.17Z" fill="#BCBCBC"/>
<path d="M3.20033 7.7334H2.66699V8.26673H3.20033V7.7334Z" fill="#BCBCBC"/>
<path d="M13.3331 7.7334H12.7998V8.26673H13.3331V7.7334Z" fill="#BCBCBC"/>
<path d="M3.709 10.1697L3.24707 10.4363L3.5137 10.8982L3.97563 10.6316L3.709 10.1697Z" fill="#BCBCBC"/>
<path d="M12.4843 5.10225L12.0225 5.3689L12.2891 5.83075L12.751 5.5641L12.4843 5.10225Z" fill="#BCBCBC"/>
<path d="M5.36822 12.0234L5.10156 12.485L5.56319 12.7515L5.82985 12.29L5.36822 12.0234Z" fill="#BCBCBC"/>
<path d="M10.4356 3.24879L10.1689 3.71033L10.6306 3.97684L10.8972 3.5153L10.4356 3.24879Z" fill="#BCBCBC"/>
<path d="M7.73362 3.7334V7.84913L5.19629 9.37153L5.47096 9.8286L8.13762 8.2286C8.21786 8.1804 8.26696 8.09367 8.26696 8.00007V3.7334H7.73362Z" fill="#BCBCBC"/>
</svg>
