<svg width="56" height="56" viewBox="0 0 56 56" fill="none" xmlns="http://www.w3.org/2000/svg">
<path d="M22.2639 37.7357L29.9978 14.5336C30.2843 13.674 29.8198 12.7449 28.9602 12.4583C28.1007 12.1719 27.1715 12.6364 26.8849 13.496L19.151 36.698C18.8646 37.5576 19.3291 38.4867 20.1887 38.7733C20.3607 38.8306 20.5357 38.8579 20.7076 38.8579C21.3945 38.858 22.0347 38.4232 22.2639 37.7357Z" fill="#89BB2A"/>
<path d="M33.8555 30.5378C36.5694 30.5378 38.7773 28.3299 38.7773 25.616C38.7773 22.902 36.5694 20.6941 33.8555 20.6941C31.1415 20.6941 28.9336 22.902 28.9336 25.616C28.9336 28.3299 31.1415 30.5378 33.8555 30.5378ZM33.8555 23.9753C34.7601 23.9753 35.4961 24.7113 35.4961 25.616C35.4961 26.5206 34.7601 27.2566 33.8555 27.2566C32.9508 27.2566 32.2148 26.5206 32.2148 25.616C32.2148 24.7113 32.9508 23.9753 33.8555 23.9753Z" fill="#89BB2A"/>
<path d="M15.2939 20.6941C12.58 20.6941 10.3721 22.902 10.3721 25.616C10.3721 28.3299 12.58 30.5378 15.2939 30.5378C18.0079 30.5378 20.2158 28.3299 20.2158 25.616C20.2158 22.902 18.008 20.6941 15.2939 20.6941ZM15.2939 27.2566C14.3893 27.2566 13.6533 26.5206 13.6533 25.616C13.6533 24.7113 14.3893 23.9753 15.2939 23.9753C16.1986 23.9753 16.9346 24.7113 16.9346 25.616C16.9346 26.5206 16.1987 27.2566 15.2939 27.2566Z" fill="#89BB2A"/>
<path d="M55.6719 20.3437L49.9508 12.7156L50.174 11.1534C50.247 10.6422 50.0752 10.1264 49.7099 9.76126L46.2296 6.28094L49.7098 2.80063C50.3506 2.16002 50.3506 1.12118 49.7098 0.480457C49.0692 -0.160152 48.0304 -0.160152 47.3897 0.480457L43.9095 3.96077L40.4291 0.480457C40.0641 0.115254 39.5482 -0.0560274 39.037 0.0163789L22.7956 2.33655C22.4442 2.38676 22.1186 2.54961 21.8675 2.80063L1.75916 22.909C-0.586387 25.2545 -0.586387 29.071 1.75916 31.4164L18.7739 48.4312C19.1219 48.7793 19.503 49.0745 19.9062 49.3192V49.9844C19.9062 53.3014 22.6048 56 25.9219 56H49.9844C53.3014 56 56 53.3014 56 49.9844V21.3281C56 20.9732 55.8848 20.6277 55.6719 20.3437ZM4.07933 29.0963C3.01315 28.0301 3.01315 26.2954 4.07933 25.2292L23.801 5.50755L38.6889 3.38076L41.5892 6.28105L39.269 8.60123L38.1089 7.44108C37.4683 6.80048 36.4294 6.80048 35.7887 7.44108C35.148 8.08169 35.148 9.12054 35.7887 9.76126L40.4291 14.4017C40.7495 14.7221 41.1694 14.8823 41.5892 14.8823C42.009 14.8823 42.429 14.7221 42.7492 14.4017C43.3899 13.7611 43.3899 12.7223 42.7492 12.0815L41.5891 10.9214L43.9092 8.60123L46.8095 11.5015L44.6826 26.3894L24.9611 46.1111C24.4446 46.6275 23.758 46.9119 23.0276 46.9119C22.2972 46.9119 21.6105 46.6274 21.094 46.1111L4.07933 29.0963ZM52.7188 49.9844C52.7188 51.4921 51.4921 52.7188 49.9844 52.7188H25.9219C24.482 52.7188 23.2995 51.6001 23.1957 50.1863C24.6796 50.1452 26.1512 49.5613 27.2812 48.4312L47.3896 28.3229C47.6406 28.0718 47.8034 27.7462 47.8536 27.3948L49.2944 17.3093L52.7188 21.875V49.9844Z" fill="#89BB2A"/>
</svg>
