<svg width="18" height="24" viewBox="0 0 18 24" fill="none" xmlns="http://www.w3.org/2000/svg">
<path d="M10.5 6.375C10.5 6.6875 10.6094 6.95312 10.8281 7.17188C11.0469 7.39062 11.3125 7.5 11.625 7.5H18V22.875C18 23.1875 17.8906 23.4531 17.6719 23.6719C17.4531 23.8906 17.1875 24 16.875 24H1.125C0.8125 24 0.546875 23.8906 0.328125 23.6719C0.109375 23.4531 0 23.1875 0 22.875V1.125C0 0.8125 0.109375 0.546875 0.328125 0.328125C0.546875 0.109375 0.8125 0 1.125 0H10.5V6.375ZM13.1719 12C12.8594 12 12.6875 12.1562 12.6562 12.4688C11.9688 15.625 11.625 17.6406 11.625 18.5156C11.5625 18.0469 11.0938 16.0156 10.2188 12.4219C10.1562 12.1406 9.98438 12 9.70312 12H8.34375C8.03125 12 7.84375 12.1406 7.78125 12.4219C6.90625 16.0156 6.4375 17.9375 6.375 18.1875C6.34375 17.3438 6.03125 15.4375 5.4375 12.4688C5.375 12.1562 5.1875 12 4.875 12H3.70312C3.51562 12 3.35938 12.0781 3.23438 12.2344C3.14062 12.3594 3.125 12.5156 3.1875 12.7031L4.92188 20.5781C4.98438 20.8594 5.17188 21 5.48438 21H7.21875C7.5 21 7.6875 20.8594 7.78125 20.5781C8.53125 17.4844 8.92188 15.75 8.95312 15.375H9C9.125 16.0938 9.51562 17.8281 10.1719 20.5781C10.2656 20.8594 10.4531 21 10.7344 21H12.5156C12.8281 21 13.0156 20.8594 13.0781 20.5781L14.8594 12.7031C14.8906 12.5781 14.875 12.4688 14.8125 12.375C14.7812 12.25 14.7188 12.1562 14.625 12.0938C14.5312 12.0312 14.4219 12 14.2969 12H13.1719ZM18 5.71875V6H12V0H12.2812C12.5938 0 12.8594 0.109375 13.0781 0.328125L17.6719 4.92188C17.8906 5.14063 18 5.40625 18 5.71875Z" fill="#89BB2A"/>
</svg>
