<svg width="18" height="19" viewBox="0 0 18 19" fill="none" xmlns="http://www.w3.org/2000/svg">
<path d="M17 0H1C0.734784 0 0.48043 0.105358 0.292893 0.292895C0.105357 0.480433 0 0.734789 0 1.00001V3.59003C0 4.11303 0.213 4.62704 0.583 4.99704L6 10.4141V18.0001C6.0002 18.1705 6.04387 18.338 6.1269 18.4868C6.20992 18.6356 6.32955 18.7607 6.47444 18.8503C6.61934 18.9399 6.78471 18.9911 6.9549 18.9989C7.1251 19.0068 7.29447 18.9711 7.447 18.8951L11.447 16.8951C11.786 16.7251 12 16.3791 12 16.0001V10.4141L17.417 4.99704C17.787 4.62704 18 4.11303 18 3.59003V1.00001C18 0.734789 17.8946 0.480433 17.7071 0.292895C17.5196 0.105358 17.2652 0 17 0ZM10.293 9.29307C10.2 9.38578 10.1262 9.49597 10.0759 9.61731C10.0256 9.73865 9.99981 9.86873 10 10.0001V15.3821L8 16.3821V10.0001C8.00019 9.86873 7.9744 9.73865 7.92412 9.61731C7.87383 9.49597 7.80004 9.38578 7.707 9.29307L2 3.59003V2.00002H16.001L16.003 3.58303L10.293 9.29307Z" fill="#89BB2A"/>
</svg>
