<svg width="12" height="9" viewBox="0 0 12 9" fill="none" xmlns="http://www.w3.org/2000/svg">
<path d="M7.19235 8.40489C7.04665 8.59116 6.86432 8.74102 6.65828 8.84386C6.45223 8.94669 6.22751 9 6 9C5.77249 9 5.54777 8.94669 5.34172 8.84386C5.13568 8.74102 4.95335 8.59116 4.80764 8.40489L0.359606 2.71446C0.170804 2.4728 0.05049 2.1788 0.0127532 1.86688C-0.0249828 1.55496 0.0214202 1.23804 0.146531 0.953216C0.271641 0.668395 0.470279 0.427471 0.719183 0.258655C0.968088 0.089838 1.25696 0.00011827 1.55196 9.93952e-07L10.448 1.77167e-06C10.743 0.000119099 11.0319 0.0898389 11.2808 0.258655C11.5297 0.427472 11.7284 0.668396 11.8535 0.953217C11.9786 1.23804 12.025 1.55496 11.9872 1.86688C11.9495 2.1788 11.8292 2.4728 11.6404 2.71446L7.19235 8.40489Z" fill="#89BB2A"/>
</svg>
