<svg width="48" height="32" viewBox="0 0 48 32" fill="none" xmlns="http://www.w3.org/2000/svg">
<path d="M0.455566 14.3665L0.455566 17.1665C0.461118 20.9541 1.9679 24.585 4.64573 27.2636C7.32356 29.9421 10.954 31.4499 14.7416 31.4565L33.2336 31.4565C37.0204 31.4499 40.6503 29.9427 43.328 27.265C46.0057 24.5873 47.513 20.9574 47.5196 17.1705V14.3705C47.514 10.583 46.0072 6.95211 43.3294 4.27353C40.6516 1.59496 37.0211 0.0871563 33.2336 0.0805435L14.7416 0.0805435C10.9547 0.0871525 7.32485 1.5944 4.64714 4.27211C1.96943 6.94983 0.462176 10.5797 0.455566 14.3665ZM44.8236 17.1665C44.8191 20.239 43.5965 23.1844 41.424 25.3569C39.2514 27.5295 36.306 28.752 33.2336 28.7565L14.7416 28.7565C11.6705 28.751 8.72675 27.5285 6.55516 25.3569C4.38356 23.1854 3.16112 20.2416 3.15557 17.1705V14.3705C3.159 11.2981 4.38052 8.35229 6.55234 6.17897C8.72416 4.00564 11.6691 2.7821 14.7416 2.77654L33.2336 2.77654C36.306 2.78104 39.2514 4.00357 41.424 6.17614C43.5965 8.34871 44.8191 11.2941 44.8236 14.3665V17.1665Z" fill="#89BB2A"/>
<path d="M22.5582 9.08342C22.6864 9.20489 22.7884 9.35119 22.8582 9.5134C22.9279 9.67562 22.9639 9.85034 22.9639 10.0269C22.9639 10.2035 22.9279 10.3782 22.8582 10.5404C22.7884 10.7026 22.6864 10.8489 22.5582 10.9704L18.7842 14.4204L32.4772 14.4204C32.8352 14.4204 33.1786 14.5626 33.4318 14.8158C33.685 15.069 33.8272 15.4124 33.8272 15.7704C33.8272 16.1285 33.685 16.4718 33.4318 16.725C33.1786 16.9782 32.8352 17.1204 32.4772 17.1204H18.7302L22.5042 20.5704C22.6324 20.6919 22.7344 20.8382 22.8042 21.0004C22.8739 21.1626 22.9099 21.3373 22.9099 21.5139C22.9099 21.6905 22.8739 21.8652 22.8042 22.0274C22.7344 22.1896 22.6324 22.3359 22.5042 22.4574C22.2652 22.6659 21.9588 22.7808 21.6417 22.7808C21.3246 22.7808 21.0182 22.6659 20.7792 22.4574L14.4672 16.7384C14.3391 16.6169 14.237 16.4706 14.1672 16.3084C14.0975 16.1462 14.0615 15.9715 14.0615 15.7949C14.0615 15.6183 14.0975 15.4436 14.1672 15.2814C14.237 15.1192 14.3391 14.9729 14.4672 14.8514L20.7752 9.08342C21.0247 8.87328 21.3405 8.75804 21.6667 8.75804C21.9929 8.75804 22.3087 8.87328 22.5582 9.08342Z" fill="white"/>
</svg>
