<svg width="8" height="6" viewBox="0 0 8 6" fill="none" xmlns="http://www.w3.org/2000/svg">
<path d="M4.76812 5.07801C4.67427 5.19055 4.55683 5.28109 4.42412 5.34322C4.29141 5.40536 4.14666 5.43756 4.00012 5.43756C3.85358 5.43756 3.70884 5.40536 3.57612 5.34322C3.44341 5.28109 3.32597 5.19055 3.23212 5.07801L0.36712 1.64001C0.245511 1.49401 0.168016 1.31638 0.14371 1.12793C0.119404 0.939475 0.149292 0.747997 0.229877 0.575917C0.310461 0.403836 0.438404 0.258276 0.598724 0.156282C0.759045 0.0542884 0.945106 8.2016e-05 1.13512 1.09673e-05L6.86512 1.09673e-05C7.05513 8.2016e-05 7.2412 0.0542884 7.40152 0.156282C7.56184 0.258276 7.68978 0.403836 7.77036 0.575917C7.85095 0.747997 7.88084 0.939475 7.85653 1.12793C7.83222 1.31638 7.75473 1.49401 7.63312 1.64001L4.76812 5.07801Z" fill="#89BB2A"/>
</svg>
