<svg width="18" height="14" viewBox="0 0 18 14" fill="none" xmlns="http://www.w3.org/2000/svg">
<path d="M15.25 8.78125V13.25C15.25 13.4583 15.1771 13.6354 15.0312 13.7812C14.8854 13.9271 14.7083 14 14.5 14H10.875C10.7708 14 10.6771 13.9583 10.5938 13.875C10.5312 13.8125 10.5 13.7292 10.5 13.625V10.125C10.5 10.0208 10.4583 9.9375 10.375 9.875C10.3125 9.79167 10.2292 9.75 10.125 9.75H7.875C7.77083 9.75 7.67708 9.79167 7.59375 9.875C7.53125 9.9375 7.5 10.0208 7.5 10.125V13.625C7.5 13.7292 7.45833 13.8125 7.375 13.875C7.3125 13.9583 7.22917 14 7.125 14H3.5C3.29167 14 3.11458 13.9271 2.96875 13.7812C2.82292 13.6354 2.75 13.4583 2.75 13.25V8.78125C2.75 8.65625 2.79167 8.55208 2.875 8.46875L8.75 3.65625C8.83333 3.59375 8.91667 3.5625 9 3.5625C9.08333 3.5625 9.16667 3.59375 9.25 3.65625L15.125 8.46875C15.2083 8.55208 15.25 8.65625 15.25 8.78125ZM17.875 6.875L15.25 4.71875V0.375C15.25 0.270833 15.2083 0.1875 15.125 0.125C15.0625 0.0416667 14.9792 0 14.875 0H13.125C13.0208 0 12.9271 0.0416667 12.8438 0.125C12.7812 0.1875 12.75 0.270833 12.75 0.375V2.65625L9.96875 0.34375C9.67708 0.114583 9.35417 0 9 0C8.64583 0 8.33333 0.114583 8.0625 0.34375L0.125 6.875C0.0625 6.9375 0.0208333 7.02083 0 7.125C0 7.22917 0.03125 7.32292 0.09375 7.40625L0.875 8.375C0.9375 8.45833 1.02083 8.5 1.125 8.5C1.22917 8.5 1.32292 8.46875 1.40625 8.40625L8.75 2.375C8.83333 2.3125 8.91667 2.28125 9 2.28125C9.08333 2.28125 9.16667 2.3125 9.25 2.375L16.5938 8.40625C16.6771 8.46875 16.7708 8.5 16.875 8.5C16.9792 8.5 17.0625 8.45833 17.125 8.375L17.9062 7.40625C17.9688 7.32292 17.9896 7.22917 17.9688 7.125C17.9688 7.02083 17.9375 6.9375 17.875 6.875Z" fill="#89BB2A"/>
</svg>
