<svg width="27" height="33" viewBox="0 0 27 33" fill="none" xmlns="http://www.w3.org/2000/svg">
<path d="M13.1641 1.62738e-08C9.73865 -0.000171258 6.4516 1.35161 4.01733 3.76154C1.58306 6.17146 0.198317 9.44476 0.164062 12.87C0.164062 21.775 11.6203 31.6875 12.1078 32.11C12.4022 32.3618 12.7767 32.5001 13.1641 32.5001C13.5514 32.5001 13.926 32.3618 14.2203 32.11C14.7891 31.6875 26.1641 21.775 26.1641 12.87C26.1298 9.44476 24.7451 6.17146 22.3108 3.76154C19.8765 1.35161 16.5895 -0.000171258 13.1641 1.62738e-08ZM13.1641 28.6813C10.4503 26.0975 3.41406 18.9313 3.41406 12.87C3.41406 10.2841 4.44129 7.80419 6.26977 5.97571C8.09825 4.14723 10.5782 3.12 13.1641 3.12C15.7499 3.12 18.2299 4.14723 20.0584 5.97571C21.8868 7.80419 22.9141 10.2841 22.9141 12.87C22.9141 18.8825 15.8778 26.0975 13.1641 28.6813Z" fill="#89BB2A"/>
<path d="M13.1641 6.5C12.0392 6.5 10.9396 6.83357 10.0043 7.45852C9.06895 8.08347 8.33997 8.97173 7.9095 10.011C7.47903 11.0502 7.3664 12.1938 7.58585 13.2971C7.8053 14.4003 8.34699 15.4138 9.1424 16.2092C9.93781 17.0046 10.9512 17.5463 12.0545 17.7657C13.1578 17.9852 14.3013 17.8725 15.3406 17.4421C16.3798 17.0116 17.2681 16.2826 17.8931 15.3473C18.518 14.412 18.8516 13.3124 18.8516 12.1875C18.8516 10.6791 18.2523 9.23244 17.1857 8.16583C16.1191 7.09922 14.6725 6.5 13.1641 6.5ZM13.1641 14.625C12.682 14.625 12.2107 14.482 11.8099 14.2142C11.409 13.9464 11.0966 13.5657 10.9121 13.1203C10.7276 12.6749 10.6794 12.1848 10.7734 11.712C10.8675 11.2391 11.0996 10.8048 11.4405 10.4639C11.7814 10.123 12.2157 9.89089 12.6885 9.79684C13.1614 9.70278 13.6515 9.75106 14.0969 9.93554C14.5423 10.12 14.9229 10.4325 15.1908 10.8333C15.4586 11.2341 15.6016 11.7054 15.6016 12.1875C15.6016 12.834 15.3448 13.454 14.8876 13.9111C14.4305 14.3682 13.8105 14.625 13.1641 14.625Z" fill="#89BB2A"/>
</svg>
