<svg width="29" height="23" viewBox="0 0 29 23" fill="none" xmlns="http://www.w3.org/2000/svg">
<path d="M25.4987 0H5.66536C4.10278 0 2.83203 1.27075 2.83203 2.83333V9.91667H5.66536V5.66667L14.732 12.4667C14.9773 12.6504 15.2756 12.7496 15.582 12.7496C15.8885 12.7496 16.1867 12.6504 16.432 12.4667L25.4987 5.66667V18.4167H14.1654V21.25H25.4987C27.0613 21.25 28.332 19.9793 28.332 18.4167V2.83333C28.332 1.27075 27.0613 0 25.4987 0ZM15.582 9.5625L6.60886 2.83333H24.5552L15.582 9.5625Z" fill="#89BB2A"/>
<path d="M0 11.3333H9.91667V14.1667H0V11.3333ZM2.83333 15.5833H11.3333V18.4167H2.83333V15.5833ZM7.08333 19.8333H12.75V22.6667H7.08333V19.8333Z" fill="#89BB2A"/>
</svg>
