<svg width="16" height="12" viewBox="0 0 16 12" fill="none" xmlns="http://www.w3.org/2000/svg">
<path d="M15.6875 3.96875C15.75 3.90625 15.8125 3.89583 15.875 3.9375C15.9583 3.97917 16 4.04167 16 4.125V10.5C16 10.9167 15.8542 11.2708 15.5625 11.5625C15.2708 11.8542 14.9167 12 14.5 12H1.5C1.08333 12 0.729167 11.8542 0.4375 11.5625C0.145833 11.2708 0 10.9167 0 10.5V4.125C0 4.04167 0.03125 3.98958 0.09375 3.96875C0.177083 3.92708 0.25 3.92708 0.3125 3.96875C1 4.48958 2.60417 5.66667 5.125 7.5L5.4375 7.78125C5.9375 8.15625 6.33333 8.42708 6.625 8.59375C7.125 8.86458 7.58333 9 8 9C8.41667 9 8.875 8.85417 9.375 8.5625C9.6875 8.39583 10.0833 8.125 10.5625 7.75L10.875 7.5C13.3333 5.72917 14.9375 4.55208 15.6875 3.96875ZM8 8C8.27083 8 8.60417 7.875 9 7.625C9.22917 7.5 9.55208 7.27083 9.96875 6.9375L10.2812 6.71875C12.9062 4.82292 14.6667 3.52083 15.5625 2.8125L15.7188 2.6875C15.9062 2.54167 16 2.34375 16 2.09375V1.5C16 1.08333 15.8542 0.729167 15.5625 0.4375C15.2708 0.145833 14.9167 0 14.5 0H1.5C1.08333 0 0.729167 0.145833 0.4375 0.4375C0.145833 0.729167 0 1.08333 0 1.5V2.09375C0 2.34375 0.09375 2.54167 0.28125 2.6875L0.5 2.84375C1.41667 3.55208 3.15625 4.84375 5.71875 6.71875L6.03125 6.9375C6.44792 7.27083 6.77083 7.5 7 7.625C7.39583 7.875 7.72917 8 8 8Z" fill="#89BB2A"/>
</svg>
