<svg width="16" height="20" viewBox="0 0 16 20" fill="none" xmlns="http://www.w3.org/2000/svg">
<path d="M8 1.00146e-08C5.89206 -0.00010539 3.86926 0.831759 2.37124 2.31479C0.873231 3.79782 0.0210794 5.81216 0 7.92C0 13.4 7.05 19.5 7.35 19.76C7.53113 19.9149 7.76165 20.0001 8 20.0001C8.23835 20.0001 8.46887 19.9149 8.65 19.76C9 19.5 16 13.4 16 7.92C15.9789 5.81216 15.1268 3.79782 13.6288 2.31479C12.1307 0.831759 10.1079 -0.00010539 8 1.00146e-08ZM8 17.65C6.33 16.06 2 11.65 2 7.92C2 6.3287 2.63214 4.80258 3.75736 3.67736C4.88258 2.55214 6.4087 1.92 8 1.92C9.5913 1.92 11.1174 2.55214 12.2426 3.67736C13.3679 4.80258 14 6.3287 14 7.92C14 11.62 9.67 16.06 8 17.65Z" fill="#89BB2A"/>
<path d="M8 4C7.30777 4 6.63108 4.20527 6.05551 4.58986C5.47993 4.97444 5.03133 5.52107 4.76642 6.16061C4.50152 6.80015 4.4322 7.50388 4.56725 8.18282C4.7023 8.86175 5.03564 9.48539 5.52513 9.97487C6.01461 10.4644 6.63825 10.7977 7.31719 10.9327C7.99612 11.0678 8.69985 10.9985 9.33939 10.7336C9.97894 10.4687 10.5256 10.0201 10.9101 9.4445C11.2947 8.86892 11.5 8.19223 11.5 7.5C11.5 6.57174 11.1313 5.6815 10.4749 5.02513C9.8185 4.36875 8.92826 4 8 4ZM8 9C7.70333 9 7.41332 8.91203 7.16665 8.7472C6.91997 8.58238 6.72771 8.34811 6.61418 8.07403C6.50065 7.79994 6.47095 7.49834 6.52882 7.20736C6.5867 6.91639 6.72956 6.64912 6.93934 6.43934C7.14912 6.22956 7.41639 6.0867 7.70737 6.02882C7.99834 5.97094 8.29994 6.00065 8.57403 6.11418C8.84812 6.22771 9.08238 6.41997 9.24721 6.66665C9.41203 6.91332 9.5 7.20333 9.5 7.5C9.5 7.89782 9.34197 8.27936 9.06066 8.56066C8.77936 8.84196 8.39783 9 8 9Z" fill="#89BB2A"/>
</svg>
