<svg width="16" height="20" viewBox="0 0 16 20" fill="none" xmlns="http://www.w3.org/2000/svg">
<path d="M8.2002 1C6.30299 0.999904 4.48242 1.75528 3.13418 3.10195C1.78593 4.44863 1.01897 6.27776 1 8.19179C1 13.1679 7.34517 18.707 7.61518 18.9431C7.7782 19.0838 7.98567 19.1611 8.2002 19.1611C8.41472 19.1611 8.62219 19.0838 8.78521 18.9431C9.10022 18.707 15.4004 13.1679 15.4004 8.19179C15.3814 6.27776 14.6145 4.44863 13.2662 3.10195C11.918 1.75528 10.0974 0.999904 8.2002 1ZM8.2002 17.0271C6.69715 15.5833 2.80005 11.5788 2.80005 8.19179C2.80005 6.7468 3.36899 5.361 4.38172 4.33924C5.39444 3.31748 6.76799 2.74346 8.2002 2.74346C9.6324 2.74346 11.006 3.31748 12.0187 4.33924C13.0314 5.361 13.6003 6.7468 13.6003 8.19179C13.6003 11.5516 9.70324 15.5833 8.2002 17.0271Z" fill="#BCBCBC" stroke="white"/>
<path d="M8.20087 4.63232C7.57784 4.63232 6.9688 4.81874 6.45077 5.16799C5.93275 5.51725 5.52899 6.01366 5.29057 6.59444C5.05215 7.17523 4.98976 7.81432 5.11131 8.43088C5.23286 9.04744 5.53287 9.61379 5.97342 10.0583C6.41397 10.5028 6.97526 10.8055 7.58632 10.9282C8.19737 11.0508 8.83075 10.9879 9.40635 10.7473C9.98196 10.5067 10.4739 10.0993 10.8201 9.57665C11.1662 9.05396 11.351 8.43943 11.351 7.81079C11.351 6.96781 11.0191 6.15935 10.4283 5.56328C9.83756 4.9672 9.03632 4.63232 8.20087 4.63232ZM8.20087 9.17299C7.93386 9.17299 7.67284 9.0931 7.45083 8.94342C7.22882 8.79374 7.05578 8.58099 6.9536 8.33208C6.85142 8.08317 6.82468 7.80928 6.87677 7.54504C6.92886 7.2808 7.05744 7.03808 7.24625 6.84757C7.43505 6.65706 7.67561 6.52733 7.93749 6.47476C8.19937 6.4222 8.47082 6.44918 8.7175 6.55228C8.96419 6.65538 9.17504 6.82998 9.32338 7.05399C9.47173 7.27801 9.5509 7.54137 9.5509 7.81079C9.5509 8.17207 9.40867 8.51855 9.15549 8.77401C8.90231 9.02947 8.55892 9.17299 8.20087 9.17299Z" fill="#BCBCBC" stroke="white"/>
</svg>
