<svg width="119" height="90" viewBox="0 0 119 90" fill="none" xmlns="http://www.w3.org/2000/svg">
<path d="M112 69.6899H106.479C106.187 69.6899 105.907 69.8058 105.701 70.0121C105.495 70.2184 105.379 70.4982 105.379 70.7899V76.3069C105.379 76.5987 105.495 76.8785 105.701 77.0848C105.907 77.2911 106.187 77.4069 106.479 77.4069H111.996C112.288 77.4069 112.567 77.2911 112.774 77.0848C112.98 76.8785 113.096 76.5987 113.096 76.3069V70.7899C113.096 70.4989 112.981 70.2197 112.775 70.0135C112.57 69.8074 112.291 69.691 112 69.6899ZM110.9 75.2069H107.59V71.8969H110.9V75.2069Z" fill="#001C4F" stroke="#001C4F" stroke-width="0.5"/>
<path d="M60.6898 69.6899H55.1688C54.8771 69.6899 54.5973 69.8058 54.391 70.0121C54.1847 70.2184 54.0688 70.4982 54.0688 70.7899V76.3069C54.0688 76.5987 54.1847 76.8785 54.391 77.0848C54.5973 77.2911 54.8771 77.4069 55.1688 77.4069H60.6858C60.9776 77.4069 61.2574 77.2911 61.4637 77.0848C61.67 76.8785 61.7858 76.5987 61.7858 76.3069V70.7899C61.7858 70.4989 61.6705 70.2197 61.4651 70.0135C61.2597 69.8074 60.9809 69.691 60.6898 69.6899ZM59.5898 75.2069H56.2798V71.8969H59.5898V75.2069Z" fill="#001C4F" stroke="#001C4F" stroke-width="0.5"/>
<path d="M106.35 52.4587C106.423 52.3239 106.468 52.1752 106.48 52.0223C106.493 51.8694 106.473 51.7155 106.422 51.5707C104.656 46.5277 100.105 39.9847 99.9392 39.7707C98.4832 37.4797 88.8992 37.1377 83.3102 37.1377C77.7212 37.1377 68.1392 37.4797 66.7092 39.7307C66.5162 40.0067 61.9642 46.5307 60.1992 51.5707C60.1508 51.7076 60.1299 51.8528 60.1379 51.9978C60.1458 52.1428 60.1824 52.2849 60.2456 52.4157C60.3087 52.5465 60.3971 52.6635 60.5057 52.76C60.6143 52.8564 60.7409 52.9304 60.8782 52.9777C61.3912 53.1377 69.5952 55.8967 82.4892 55.8967C90.3036 55.882 98.0863 54.9036 105.661 52.9837C105.806 52.9474 105.941 52.8821 106.06 52.7919C106.178 52.7016 106.277 52.5883 106.35 52.4587ZM62.6982 51.2237C64.3291 47.6486 66.2773 44.2269 68.5192 40.9997C69.1702 40.3317 74.3192 39.3447 83.3112 39.3447C92.3032 39.3447 97.4522 40.3267 98.1032 40.9997C100.332 44.21 102.273 47.6109 103.903 51.1627C83.0232 56.1167 66.9302 52.4037 62.6982 51.2237Z" fill="#001C4F" stroke="#001C4F" stroke-width="0.5"/>
<path d="M116.309 43.759H112.1C111.487 43.759 110.899 44.0026 110.465 44.4362C110.032 44.8698 109.788 45.4578 109.788 46.071V46.231C109.79 46.9498 109.98 47.6556 110.34 48.278L110.04 48.578C108.055 44.2096 105.69 40.0241 102.972 36.07C101.23 33.314 88.629 33 83.321 33C78.013 33 65.401 33.276 63.691 36.034C61.0786 39.8004 58.7936 43.7836 56.861 47.94L56.585 47.62C56.7453 47.1741 56.8275 46.7039 56.828 46.23V46.07C56.828 45.4568 56.5844 44.8688 56.1508 44.4352C55.7172 44.0016 55.1292 43.758 54.516 43.758H50.316C50.012 43.7575 49.711 43.8169 49.43 43.9328C49.149 44.0488 48.8937 44.219 48.6786 44.4338C48.4635 44.6485 48.2928 44.9035 48.1764 45.1843C48.0599 45.4651 48 45.766 48 46.07V46.23C48.0013 47.33 48.4389 48.3845 49.2167 49.1623C49.9945 49.9401 51.049 50.3777 52.149 50.379H52.7C53.6412 50.3796 54.5543 50.0586 55.288 49.469L55.84 50.12C53.5823 52.1616 51.8065 54.6794 50.6408 57.4912C49.4752 60.3031 48.9489 63.3389 49.1 66.379C49.431 74.693 50.755 79.179 51.307 80.762V85.728C51.307 86.5954 51.6515 87.4274 52.2646 88.0409C52.8778 88.6545 53.7096 88.9995 54.577 89H57.977C58.8427 88.9984 59.6725 88.6538 60.2847 88.0417C60.8968 87.4295 61.2414 86.5997 61.243 85.734V82.1H61.833C61.9898 82.1001 62.1447 82.0667 62.2875 82.002C62.4303 81.9374 62.5577 81.8429 62.661 81.725L63.715 80.539H102.886L103.94 81.725C104.043 81.8429 104.171 81.9374 104.313 82.002C104.456 82.0667 104.611 82.1001 104.768 82.1H105.38V85.73C105.381 86.5964 105.725 87.4272 106.337 88.0402C106.949 88.6533 107.78 88.9984 108.646 89H112.046C112.912 88.9984 113.742 88.6538 114.354 88.0417C114.966 87.4295 115.31 86.5997 115.312 85.734V80.768C115.864 79.185 117.171 74.699 117.519 66.385C117.67 63.4395 117.187 60.4959 116.103 57.753C115.019 55.01 113.359 52.5316 111.235 50.485L111.897 49.823C112.519 50.1826 113.225 50.3729 113.944 50.375H114.496C115.592 50.3679 116.641 49.9278 117.414 49.1506C118.187 48.3734 118.622 47.3222 118.623 46.226V46.066C118.622 45.4533 118.377 44.8663 117.943 44.4337C117.509 44.0011 116.922 43.7585 116.309 43.759ZM54.621 46.23C54.621 46.7451 54.4164 47.239 54.0522 47.6032C53.688 47.9674 53.1941 48.172 52.679 48.172H52.127C51.6158 48.1662 51.1274 47.9591 50.768 47.5955C50.4085 47.2319 50.207 46.7413 50.207 46.23V46.07C50.207 46.0435 50.2175 46.018 50.2363 45.9993C50.255 45.9805 50.2805 45.97 50.307 45.97H54.507C54.5335 45.97 54.559 45.9805 54.5777 45.9993C54.5965 46.018 54.607 46.0435 54.607 46.07L54.621 46.23ZM57.661 51.482C57.8331 51.3485 57.9633 51.1684 58.036 50.963C58.036 50.963 58.036 50.924 58.036 50.902C58.136 50.615 58.246 50.35 58.362 50.03C60.568 44.4 65.429 37.375 65.5 37.27C66.206 36.431 72.336 35.207 83.31 35.207C94.284 35.207 100.41 36.432 101.12 37.293C101.175 37.37 106.582 45.193 108.585 50.954C108.658 51.1594 108.788 51.3395 108.96 51.473C109.653 52.0284 110.29 52.6511 110.86 53.332C83.13 64.366 60.78 55.632 55.754 53.332C56.3249 52.6549 56.9614 52.0359 57.654 51.484L57.661 51.482ZM66.836 59.206C72.1295 60.3781 77.5353 60.9683 82.957 60.966C88.2336 60.9618 93.4955 60.4071 98.657 59.311C98.4288 59.9753 98.3532 60.6825 98.436 61.38C98.5407 62.1614 98.8301 62.9066 99.28 63.554L97.206 64.172C90.381 66.131 83.965 67.979 72.958 65.055C70.512 64.4037 68.2057 63.852 66.039 63.4C66.529 62.7908 66.8593 62.069 67 61.3C67.1196 60.6 67.0625 59.8813 66.834 59.209L66.836 59.206ZM54.394 55.135C57.4553 56.5311 60.6327 57.6571 63.89 58.5L63.923 58.55C64.2333 58.8538 64.4744 59.2211 64.6297 59.6267C64.785 60.0323 64.851 60.4666 64.823 60.9C64.6145 61.7115 64.1059 62.4137 63.4 62.865C62.848 62.765 62.258 62.665 61.712 62.578C56.344 61.745 53.282 61.905 51.571 62.258C51.9981 59.7115 52.9588 57.2841 54.39 55.135H54.394ZM59.034 85.735C59.034 86.0159 58.9224 86.2852 58.7238 86.4838C58.5252 86.6824 58.2559 86.794 57.975 86.794H54.575C54.2941 86.794 54.0248 86.6824 53.8262 86.4838C53.6276 86.2852 53.516 86.0159 53.516 85.735V82.1H59.033L59.034 85.735ZM113.103 85.735C113.103 86.0159 112.991 86.2852 112.793 86.4838C112.594 86.6824 112.325 86.794 112.044 86.794H108.644C108.363 86.794 108.094 86.6824 107.895 86.4838C107.697 86.2852 107.585 86.0159 107.585 85.735V82.1H113.1L113.103 85.735ZM115.31 66.319C115 74.092 113.815 78.374 113.3 79.9H105.286L104.232 78.7C104.129 78.5838 104.002 78.4907 103.861 78.4269C103.719 78.3632 103.565 78.3301 103.41 78.33H63.21C63.0546 78.3301 62.901 78.3632 62.7594 78.4269C62.6177 78.4907 62.4911 78.5838 62.388 78.7L61.335 79.9H53.341C52.822 78.372 51.641 74.107 51.311 66.322V64.612C52.155 64.32 54.82 63.751 61.358 64.766C65.075 65.3771 68.758 66.1802 72.392 67.172C76.0577 68.1931 79.8419 68.7273 83.647 68.761C89.164 68.761 93.539 67.509 97.815 66.278C101.1 65.2456 104.464 64.4837 107.873 64C110.315 63.708 112.779 63.6434 115.233 63.807C115.311 64.6419 115.337 65.4809 115.31 66.319ZM112.254 55.152C113.548 57.1021 114.456 59.282 114.93 61.574C112.495 61.4377 110.052 61.5153 107.63 61.806C105.611 62.0616 103.61 62.443 101.638 62.948C101.108 62.4655 100.755 61.8183 100.638 61.111C100.61 60.6637 100.674 60.2155 100.825 59.7935C100.975 59.3715 101.21 58.9845 101.515 58.656C105.165 57.7402 108.747 56.5707 112.235 55.156L112.254 55.152ZM116.414 46.231C116.414 46.7461 116.209 47.24 115.845 47.6042C115.481 47.9684 114.987 48.173 114.472 48.173H113.92C113.409 48.1672 112.92 47.9599 112.561 47.5961C112.201 47.2323 112 46.7414 112 46.23V46.07C112 46.0435 112.011 46.018 112.029 45.9993C112.048 45.9805 112.073 45.97 112.1 45.97H116.3C116.327 45.97 116.352 45.9805 116.371 45.9993C116.389 46.018 116.4 46.0435 116.4 46.07L116.414 46.231Z" fill="#001C4F" stroke="#001C4F" stroke-width="0.5"/>
<path d="M81.376 64.9341H85.238C85.5306 64.9341 85.8113 64.8178 86.0183 64.6108C86.2252 64.4039 86.3415 64.1232 86.3415 63.8306C86.3415 63.5379 86.2252 63.2572 86.0183 63.0503C85.8113 62.8433 85.5306 62.7271 85.238 62.7271H81.376C81.0833 62.7271 80.8026 62.8433 80.5957 63.0503C80.3887 63.2572 80.2725 63.5379 80.2725 63.8306C80.2725 64.1232 80.3887 64.4039 80.5957 64.6108C80.8026 64.8178 81.0833 64.9341 81.376 64.9341Z" fill="#001C4F" stroke="#001C4F" stroke-width="0.5"/>
<path d="M100.69 74.103H65.9282C65.6355 74.103 65.3549 74.2193 65.1479 74.4262C64.941 74.6332 64.8247 74.9139 64.8247 75.2065C64.8247 75.4992 64.941 75.7799 65.1479 75.9868C65.3549 76.1938 65.6355 76.31 65.9282 76.31H100.69C100.983 76.31 101.264 76.1938 101.471 75.9868C101.677 75.7799 101.794 75.4992 101.794 75.2065C101.794 74.9139 101.677 74.6332 101.471 74.4262C101.264 74.2193 100.983 74.103 100.69 74.103Z" fill="#001C4F" stroke="#001C4F" stroke-width="0.5"/>
<path d="M67.8589 72.4482H98.7589C99.0515 72.4482 99.3322 72.3319 99.5392 72.125C99.7461 71.9181 99.8624 71.6374 99.8624 71.3447C99.8624 71.052 99.7461 70.7714 99.5392 70.5644C99.3322 70.3575 99.0515 70.2412 98.7589 70.2412H67.8589C67.5662 70.2412 67.2855 70.3575 67.0786 70.5644C66.8716 70.7714 66.7554 71.052 66.7554 71.3447C66.7554 71.6374 66.8716 71.9181 67.0786 72.125C67.2855 72.3319 67.5662 72.4482 67.8589 72.4482Z" fill="#001C4F" stroke="#001C4F" stroke-width="0.5"/>
<path d="M15.8223 88.6H8.60352C8.17701 88.6029 7.75508 88.5212 7.36035 88.3596C6.96562 88.1981 6.60674 87.9598 6.30469 87.6587C6.00263 87.3576 5.76337 86.9996 5.60059 86.6053C5.4378 86.2111 5.35485 85.7886 5.35645 85.3621V81.405H4.99219C4.34472 81.4038 3.70381 81.2695 3.11035 81.0106C2.5169 80.7517 1.98336 80.3737 1.54199 79.9C0.631128 78.9512 0.122123 77.6872 0.121094 76.3719V13.5H67.8037V30.956L65.0908 32.046V15.592H2.83008V50.658H47.2861L51.5635 53.176H2.83008V68.462H6.79883C7.225 68.4593 7.64753 68.5409 8.04199 68.7023C8.43645 68.8636 8.7956 69.1014 9.09766 69.4021C9.39971 69.7028 9.63858 70.0603 9.80176 70.454C9.96494 70.8477 10.0487 71.2699 10.0479 71.696V73.496C10.0492 73.9225 9.96568 74.3451 9.80273 74.7393C9.63979 75.1334 9.40074 75.4914 9.09863 75.7925C8.79653 76.0936 8.43769 76.3318 8.04297 76.4934C7.64825 76.655 7.22534 76.7368 6.79883 76.734H2.83008C2.88401 77.2097 3.10172 77.6517 3.44629 77.984C3.79086 78.3164 4.24045 78.5183 4.71777 78.5551C4.80955 78.555 4.90159 78.5476 4.99219 78.533H23.2197V68.64C23.2196 68.2138 23.3042 67.7917 23.4678 67.3981C23.6314 67.0045 23.8706 66.6471 24.1729 66.3466C24.4751 66.046 24.834 65.8081 25.2285 65.6467C25.623 65.4853 26.0454 65.4035 26.4717 65.406H40.9102C41.3363 65.4028 41.7589 65.4842 42.1533 65.6455C42.5477 65.8068 42.9062 66.0447 43.208 66.3455C43.5098 66.6463 43.7485 67.004 43.9111 67.3978C44.0737 67.7917 44.157 68.2139 44.1553 68.64V78.533H48.6152V81.233H19.0713V85.3669C19.0726 85.7935 18.9891 86.2161 18.8262 86.6102C18.6632 87.0044 18.4242 87.3624 18.1221 87.6635C17.82 87.9645 17.4611 88.2028 17.0664 88.3644C16.6717 88.526 16.2488 88.6078 15.8223 88.605V88.6ZM7.88477 81.229V85.363C7.89242 85.5036 7.95231 85.6363 8.05176 85.736C8.1512 85.8356 8.28328 85.895 8.42383 85.903H15.6445C15.7852 85.8951 15.9189 85.8357 16.0186 85.7361C16.1182 85.6365 16.1767 85.5037 16.1846 85.363H16.0049V81.229H7.88477ZM26.291 77.092V78.707H41.6318V77.092H26.291ZM26.291 72.592V74.392H41.6318V72.592H26.291ZM2.8291 71.333V74.2111H6.79785C6.9385 74.2032 7.07129 74.1437 7.1709 74.0441C7.27051 73.9445 7.33 73.8117 7.33789 73.671V71.871C7.33 71.7303 7.27051 71.5975 7.1709 71.4979C7.07129 71.3983 6.9385 71.3389 6.79785 71.3311L2.8291 71.333ZM26.8291 68.275C26.6885 68.2829 26.5557 68.3423 26.4561 68.4419C26.3564 68.5415 26.297 68.6743 26.2891 68.8149V69.8979H41.8096V68.8149C41.8009 68.6739 41.7409 68.541 41.6406 68.4414C41.5403 68.3418 41.4068 68.2826 41.2656 68.275H26.8291ZM17.6289 66.116H8.60645C7.98822 66.1093 7.39621 65.8614 6.95801 65.4253C6.51981 64.9891 6.26937 64.3992 6.25977 63.781V58.381C6.30784 57.7925 6.57588 57.2438 7.01074 56.8443C7.4456 56.4448 8.01597 56.2241 8.60645 56.226H14.9199C16.2621 56.2079 17.5586 56.7149 18.5322 57.639C18.9921 58.0855 19.3567 58.6205 19.6045 59.2117C19.8523 59.8028 19.9776 60.438 19.9736 61.079V63.7791C19.9366 64.3881 19.6776 64.9623 19.2451 65.3927C18.8126 65.8231 18.2371 66.0799 17.6279 66.114L17.6289 66.116ZM9.14648 58.745V63.245H17.4463V61.0861C17.4367 60.4668 17.185 59.8757 16.7461 59.4388C16.3071 59.0019 15.715 58.7537 15.0957 58.747L9.14648 58.745ZM7.79492 40.445C7.4221 40.4476 7.06309 40.304 6.79492 40.045C6.53578 39.7808 6.39062 39.4255 6.39062 39.0555C6.39062 38.6854 6.53578 38.3301 6.79492 38.066L14.7393 30.151C15.0042 29.8921 15.3601 29.7472 15.7305 29.7472C16.1009 29.7472 16.4558 29.8921 16.7207 30.151C16.9782 30.416 17.1221 30.771 17.1221 31.1405C17.1221 31.51 16.9782 31.865 16.7207 32.13L8.78125 40.045C8.51778 40.304 8.16338 40.45 7.79395 40.452L7.79492 40.445ZM7.25098 30.016C6.88114 30.0169 6.52535 29.8734 6.25977 29.616C6.00063 29.3519 5.85547 28.9966 5.85547 28.6265C5.85547 28.2565 6.00063 27.9012 6.25977 27.637L13.4775 20.445C13.6072 20.3146 13.7619 20.211 13.9316 20.1401C14.1014 20.0693 14.2829 20.0326 14.4668 20.0321C14.6507 20.0316 14.8328 20.0673 15.0029 20.1372C15.173 20.2071 15.3286 20.3098 15.459 20.4395C15.5894 20.5692 15.6928 20.7233 15.7637 20.893C15.8345 21.0627 15.8706 21.2447 15.8711 21.4286C15.8716 21.6125 15.8365 21.7947 15.7666 21.9648C15.6967 22.1349 15.5935 22.2896 15.4639 22.42L8.24609 29.62C7.98038 29.8805 7.62212 30.0251 7.25 30.022L7.25098 30.016ZM20.0664 28.216C19.8825 28.2183 19.6999 28.1841 19.5293 28.1155C19.3587 28.0468 19.2033 27.945 19.0723 27.816C18.8148 27.5503 18.6709 27.1949 18.6709 26.825C18.6709 26.4551 18.8148 26.0996 19.0723 25.834L24.8496 20.081C25.1145 19.8221 25.4704 19.6772 25.8408 19.6772C26.2112 19.6772 26.5671 19.8221 26.832 20.081C27.0931 20.3442 27.2393 20.6998 27.2393 21.0705C27.2393 21.4412 27.0931 21.7968 26.832 22.06L21.0566 27.816C20.9267 27.9465 20.7729 28.0499 20.6025 28.1199C20.4322 28.19 20.2496 28.2254 20.0654 28.224L20.0664 28.216Z" fill="#001C4F"/>
<path d="M9 1.5H59C59.9849 1.5 60.9602 1.69399 61.8701 2.0709C62.7801 2.44781 63.6069 3.00026 64.3033 3.6967C64.9997 4.39314 65.5522 5.21993 65.9291 6.12987C66.306 7.03982 66.5 8.01509 66.5 9V13C66.5 13.3978 66.342 13.7794 66.0607 14.0607C65.7794 14.342 65.3978 14.5 65 14.5H3C2.60218 14.5 2.22064 14.342 1.93934 14.0607C1.65804 13.7794 1.5 13.3978 1.5 13V9C1.5 7.01088 2.29018 5.10322 3.6967 3.6967C5.10322 2.29018 7.01088 1.5 9 1.5V1.5Z" stroke="#001C4F" stroke-width="3"/>
</svg>
