<svg width="69" height="90" viewBox="0 0 69 90" fill="none" xmlns="http://www.w3.org/2000/svg">
<path d="M58.8921 21.5313C50.1852 19.8864 42.0179 16.1206 35.1131 10.5673C34.8995 10.3912 34.6329 10.2922 34.3561 10.2864C34.0794 10.2806 33.8088 10.3683 33.5881 10.5353C31.2655 12.2905 28.8124 13.8657 26.2501 15.2473C21.2298 17.9468 15.8743 19.9697 10.3231 21.2633C10.0544 21.3273 9.81507 21.4797 9.6435 21.696C9.47192 21.9124 9.37808 22.1802 9.37706 22.4563C9.35106 30.7213 9.31006 43.5663 9.31006 44.2893C9.31006 60.1443 28.1101 75.0893 33.8771 79.2893C34.0875 79.4427 34.3412 79.5254 34.6016 79.5254C34.862 79.5254 35.1156 79.4427 35.3261 79.2893C36.0121 78.7893 36.7581 78.2303 37.5511 77.6183C42.2251 73.9843 48.8061 68.2063 53.6141 61.3243C55.9789 58.0727 57.7972 54.4568 58.9971 50.6193C59.4627 49.0384 59.7577 47.4121 59.8771 45.7683L59.8841 45.6373C59.9201 45.1943 59.9381 44.7373 59.9381 44.2923C59.9381 43.5783 59.8721 22.7323 59.8721 22.7323C59.8711 22.4502 59.7732 22.1769 59.5948 21.9582C59.4164 21.7396 59.1683 21.5889 58.8921 21.5313ZM57.4331 45.4313C57.4331 45.4383 57.4221 45.5813 57.4221 45.5883C57.3158 47.0607 57.0516 48.5174 56.6341 49.9333C55.5085 53.5106 53.8079 56.8807 51.5991 59.9113C46.9661 66.5473 40.5841 72.1473 36.0421 75.6763C35.5421 76.0633 35.0611 76.4273 34.6021 76.7683C28.3841 72.1253 11.7711 58.3963 11.7711 44.2923C11.7711 43.5923 11.8081 31.6923 11.8351 23.4283C17.2625 22.0854 22.4994 20.0645 27.4221 17.4133C29.811 16.1248 32.109 14.6744 34.3001 13.0723C41.0903 18.3451 48.9982 21.9921 57.4171 23.7333C57.4301 27.8853 57.4791 43.6723 57.4791 44.2933C57.4841 44.6733 57.4641 45.0593 57.4331 45.4353V45.4313Z" fill="#001C4F" stroke="#001C4F" stroke-width="0.5"/>
<path d="M68.173 19.2085C68.1691 17.9153 67.7012 16.6665 66.8544 15.6892C66.0077 14.7118 64.8384 14.0707 63.559 13.8825C53.392 12.3205 45.292 8.67347 38.797 2.72847C37.6555 1.65954 36.1621 1.04555 34.5989 1.00243C33.0356 0.959323 31.5107 1.49007 30.312 2.49447C27.8265 4.55599 25.1419 6.36491 22.298 7.89447C17.883 10.2615 13.1731 12.0317 8.292 13.1585C7.34867 13.3865 6.387 13.5948 5.407 13.7835C4.18608 14.0267 3.08729 14.6857 2.2979 15.6484C1.50851 16.611 1.07738 17.8176 1.078 19.0625C1.054 26.5545 1 43.4565 1 44.2905C1 69.0365 32.637 88.5985 33.984 89.4195C34.1768 89.5374 34.3985 89.5997 34.6245 89.5997C34.8505 89.5997 35.0722 89.5374 35.265 89.4195C37.8071 87.8145 40.2665 86.0823 42.634 84.2295C47.76 80.2435 55.005 73.8695 60.403 66.1415C63.3024 62.1276 65.5245 57.6659 66.981 52.9335C67.6121 50.7737 68.011 48.5528 68.171 46.3085C68.2237 45.6365 68.25 44.9651 68.25 44.2945C68.25 43.4645 68.197 26.7675 68.173 19.2085ZM65.716 46.1305C65.5684 48.2045 65.1997 50.2568 64.616 52.2525C63.234 56.7246 61.1299 60.9406 58.387 64.7335C53.165 72.2085 46.118 78.4085 41.128 82.2875C38.134 84.6005 35.728 86.2075 34.628 86.9145C30.128 83.9975 3.462 65.8085 3.462 44.2935C3.462 43.4595 3.516 26.5625 3.54 19.0725C3.5378 18.3991 3.76894 17.7458 4.1941 17.2236C4.61926 16.7015 5.21218 16.3428 5.872 16.2085C6.892 16.0085 7.89 15.7921 8.866 15.5595C13.9542 14.3822 18.8637 12.5351 23.466 10.0665C26.4516 8.45802 29.2701 6.55702 31.88 4.39147C32.5883 3.79866 33.4823 3.4734 34.406 3.47247C35.4171 3.47626 36.39 3.85955 37.132 4.54647C44.002 10.8285 52.522 14.6775 63.186 16.3085C63.8847 16.4089 64.5241 16.7569 64.9877 17.2892C65.4514 17.8215 65.7084 18.5026 65.712 19.2085C65.736 26.7675 65.789 43.4595 65.789 44.2885C65.789 44.8995 65.765 45.5085 65.716 46.1305Z" fill="#001C4F" stroke="#001C4F" stroke-width="0.5"/>
</svg>
