<svg width="89" height="89" viewBox="0 0 89 89" fill="none" xmlns="http://www.w3.org/2000/svg">
<path d="M87.0465 85.571H76.4465C76.621 85.0986 76.7127 84.5996 76.7175 84.096C76.7175 82.9222 76.2512 81.7964 75.4212 80.9664C74.5911 80.1363 73.4654 79.67 72.2915 79.67H67.8665V70.817H73.7665C74.1577 70.817 74.5329 70.6616 74.8095 70.385C75.0861 70.1084 75.2415 69.7332 75.2415 69.342V63.442C75.2415 62.2682 74.7752 61.1424 73.9452 60.3124C73.1151 59.4823 71.9894 59.016 70.8155 59.016H60.4905C60.3701 59.0158 60.2502 59.0306 60.1335 59.06L55.3145 60.26L51.6375 45.558V36.884C51.6375 35.7102 51.1712 34.5844 50.3412 33.7544C49.5111 32.9243 48.3853 32.458 47.2115 32.458C46.0377 32.458 44.9119 32.9243 44.0818 33.7544C43.2518 34.5844 42.7855 35.7102 42.7855 36.884V45.736C42.7855 45.8567 42.8002 45.9769 42.8295 46.094L44.5855 53.112H36.8855C35.7117 53.112 34.5859 53.5783 33.7558 54.4084C32.9258 55.2384 32.4595 56.3642 32.4595 57.538C32.4595 58.7119 32.9258 59.8376 33.7558 60.6677C34.5859 61.4977 35.7117 61.964 36.8855 61.964H46.8005L48.7335 69.699C48.8133 70.0181 48.9975 70.3013 49.2568 70.5037C49.5161 70.7061 49.8356 70.816 50.1645 70.816H59.0165V79.668H51.6375C50.4637 79.668 49.3379 80.1343 48.5078 80.9644C47.6778 81.7944 47.2115 82.9202 47.2115 84.094C47.2163 84.5976 47.308 85.0966 47.4825 85.569H33.6625C33.837 85.0966 33.9287 84.5976 33.9335 84.094C33.9335 83.5128 33.819 82.9372 33.5966 82.4003C33.3742 81.8633 33.0481 81.3753 32.6372 80.9644C32.2262 80.5534 31.7382 80.2273 31.2013 80.0049C30.6643 79.7825 30.0887 79.668 29.5075 79.668H23.6075V70.817H29.5075C29.8987 70.817 30.2739 70.6616 30.5505 70.385C30.8271 70.1084 30.9825 69.7332 30.9825 69.342V63.442C30.9825 62.8608 30.868 62.2852 30.6456 61.7482C30.4232 61.2113 30.0971 60.7233 29.6862 60.3124C29.2752 59.9014 28.7872 59.5753 28.2503 59.3529C27.7133 59.1305 27.1377 59.016 26.5565 59.016H17.7005C17.5801 59.0158 17.4602 59.0306 17.3435 59.06L12.5245 60.26L8.8525 45.558V36.884C8.8525 35.7102 8.38619 34.5844 7.55615 33.7544C6.72612 32.9243 5.60035 32.458 4.4265 32.458C3.25265 32.458 2.12688 32.9243 1.29685 33.7544C0.466809 34.5844 0.000499981 35.7102 0.000499964 36.884V45.736C0.000465681 45.8567 0.0152427 45.9769 0.0444999 46.094L5.9445 69.7C6.02433 70.0191 6.20853 70.3023 6.46781 70.5047C6.72709 70.7071 7.04658 70.817 7.3755 70.817H14.7525V79.669H8.8525C7.67865 79.669 6.55288 80.1353 5.72285 80.9654C4.89281 81.7954 4.4265 82.9212 4.4265 84.095C4.43213 84.5991 4.52483 85.0985 4.7005 85.571H1.4755C1.08417 85.571 0.708874 85.7265 0.432164 86.0032C0.155454 86.2799 0 86.6552 0 87.0465C0 87.4378 0.155454 87.8131 0.432164 88.0898C0.708874 88.3666 1.08417 88.522 1.4755 88.522H87.0465C87.4378 88.522 87.8131 88.3666 88.0898 88.0898C88.3665 87.8131 88.522 87.4378 88.522 87.0465C88.522 86.6552 88.3665 86.2799 88.0898 86.0032C87.8131 85.7265 87.4378 85.571 87.0465 85.571ZM8.5295 67.871L2.9515 45.558V36.884C2.9515 36.4927 3.10695 36.1174 3.38366 35.8407C3.66037 35.564 4.03567 35.4085 4.427 35.4085C4.81833 35.4085 5.19363 35.564 5.47034 35.8407C5.74705 36.1174 5.9025 36.4927 5.9025 36.884V45.736C5.90247 45.8567 5.91724 45.9769 5.9465 46.094L10.0325 62.408C10.1272 62.7875 10.3688 63.1139 10.7041 63.3153C11.0394 63.5167 11.441 63.5766 11.8205 63.482L17.8855 61.965H26.5565C26.9477 61.965 27.3229 62.1204 27.5995 62.397C27.8761 62.6736 28.0315 63.0488 28.0315 63.44V67.866H25.0815V66.391C25.0815 65.9997 24.926 65.6244 24.6493 65.3477C24.3726 65.071 23.9973 64.9155 23.606 64.9155C23.2147 64.9155 22.8394 65.071 22.5627 65.3477C22.286 65.6244 22.1305 65.9997 22.1305 66.391V67.866L8.5295 67.871ZM20.6555 70.822V79.674H17.7005V70.817L20.6555 70.822ZM29.5075 85.576H8.8525C8.46117 85.576 8.08587 85.4206 7.80916 85.1438C7.53245 84.8671 7.377 84.4918 7.377 84.1005C7.377 83.7092 7.53245 83.3339 7.80916 83.0572C8.08587 82.7805 8.46117 82.625 8.8525 82.625H29.5075C29.8988 82.625 30.2741 82.7805 30.5508 83.0572C30.8275 83.3339 30.983 83.7092 30.983 84.1005C30.983 84.4918 30.8275 84.8671 30.5508 85.1438C30.2741 85.4206 29.8988 85.576 29.5075 85.576ZM36.8845 59.02C36.4932 59.02 36.1179 58.8646 35.8412 58.5878C35.5645 58.3111 35.409 57.9358 35.409 57.5445C35.409 57.1532 35.5645 56.7779 35.8412 56.5012C36.1179 56.2245 36.4932 56.069 36.8845 56.069H45.3225L46.0605 59.02H36.8845ZM51.3145 67.872L45.7365 45.558V36.884C45.7365 36.4927 45.892 36.1174 46.1687 35.8407C46.4454 35.564 46.8207 35.4085 47.212 35.4085C47.6033 35.4085 47.9786 35.564 48.2553 35.8407C48.532 36.1174 48.6875 36.4927 48.6875 36.884V45.736C48.6875 45.8567 48.7022 45.9769 48.7315 46.094L52.8185 62.408C52.9132 62.7875 53.1548 63.1139 53.4901 63.3153C53.8254 63.5167 54.227 63.5766 54.6065 63.482L60.6715 61.965H70.8175C71.2087 61.965 71.5839 62.1204 71.8605 62.397C72.1371 62.6736 72.2925 63.0488 72.2925 63.44V67.866H69.3425V66.391C69.3425 65.9997 69.187 65.6244 68.9103 65.3477C68.6336 65.071 68.2583 64.9155 67.867 64.9155C67.4757 64.9155 67.1004 65.071 66.8237 65.3477C66.547 65.6244 66.3915 65.9997 66.3915 66.391V67.866L51.3145 67.872ZM64.9145 70.823V79.675H61.9655V70.817L64.9145 70.823ZM72.2915 85.577H51.6375C51.2462 85.577 50.8709 85.4216 50.5942 85.1448C50.3175 84.8681 50.162 84.4928 50.162 84.1015C50.162 83.7102 50.3175 83.3349 50.5942 83.0582C50.8709 82.7815 51.2462 82.626 51.6375 82.626H72.2925C72.6838 82.626 73.0591 82.7815 73.3358 83.0582C73.6125 83.3349 73.768 83.7102 73.768 84.1015C73.768 84.4928 73.6125 84.8681 73.3358 85.1448C73.0591 85.4216 72.6838 85.577 72.2925 85.577H72.2915Z" fill="#001C4F"/>
<path d="M28.0316 51.6371C29.9865 51.6336 31.8603 50.8553 33.2423 49.4727C34.6244 48.0901 35.4019 46.216 35.4046 44.2611V32.4611C35.403 30.5055 34.6259 28.6303 33.2438 27.2468C31.8616 25.8634 29.9872 25.0845 28.0316 25.0811H25.0816C23.1258 25.0834 21.2508 25.8614 19.8679 27.2444C18.485 28.6273 17.707 30.5023 17.7046 32.4581V44.2581C17.707 46.2138 18.485 48.0888 19.8679 49.4718C21.2508 50.8547 23.1258 51.6327 25.0816 51.6351L28.0316 51.6371ZM20.6546 32.4571C20.6546 31.8758 20.7691 31.3003 20.9915 30.7633C21.2139 30.2263 21.5399 29.7384 21.9509 29.3274C22.3619 28.9164 22.8498 28.5904 23.3868 28.368C23.9238 28.1455 24.4994 28.0311 25.0806 28.0311H28.0316C28.6128 28.0311 29.1884 28.1455 29.7253 28.368C30.2623 28.5904 30.7503 28.9164 31.1612 29.3274C31.5722 29.7384 31.8983 30.2263 32.1207 30.7633C32.3431 31.3003 32.4576 31.8758 32.4576 32.4571V42.7811H20.6576L20.6546 32.4571ZM20.9256 45.7351H32.1856C31.8816 46.5952 31.3192 47.3403 30.5754 47.8686C29.8317 48.3968 28.9428 48.6823 28.0306 48.6861H25.0816C24.1693 48.6823 23.2805 48.3968 22.5367 47.8686C21.793 47.3403 21.2306 46.5952 20.9266 45.7351H20.9256Z" fill="#001C4F"/>
<path d="M28.0325 36.8838H25.0815C24.6901 36.8838 24.3148 37.0392 24.0381 37.316C23.7614 37.5927 23.606 37.968 23.606 38.3593C23.606 38.7506 23.7614 39.1259 24.0381 39.4026C24.3148 39.6793 24.6901 39.8348 25.0815 39.8348H28.0325C28.4238 39.8348 28.7991 39.6793 29.0758 39.4026C29.3525 39.1259 29.508 38.7506 29.508 38.3593C29.508 37.968 29.3525 37.5927 29.0758 37.316C28.7991 37.0392 28.4238 36.8838 28.0325 36.8838Z" fill="#001C4F"/>
<path d="M66.3916 51.6371H69.3426C71.2974 51.6334 73.1709 50.8549 74.5528 49.4723C75.9346 48.0898 76.712 46.2158 76.7146 44.2611V32.4611C76.7131 30.5055 75.936 28.6303 74.5538 27.2468C73.1717 25.8634 71.2972 25.0845 69.3416 25.0811H66.3916C64.4359 25.0834 62.5609 25.8614 61.178 27.2444C59.795 28.6273 59.017 30.5023 59.0146 32.4581V44.2581C59.017 46.2138 59.795 48.0888 61.178 49.4718C62.5609 50.8547 64.4359 51.6327 66.3916 51.6351V51.6371ZM69.3426 48.6861H66.3916C65.4794 48.6823 64.5906 48.3968 63.8468 47.8686C63.103 47.3403 62.5407 46.5952 62.2366 45.7351H73.4966C73.1926 46.5952 72.6303 47.3403 71.8865 47.8686C71.1427 48.3968 70.2539 48.6823 69.3416 48.6861H69.3426ZM61.9656 32.4581C61.9656 31.2842 62.432 30.1584 63.262 29.3284C64.092 28.4984 65.2178 28.0321 66.3916 28.0321H69.3426C70.5165 28.0321 71.6423 28.4984 72.4723 29.3284C73.3023 30.1584 73.7687 31.2842 73.7687 32.4581V42.7811H61.9686L61.9656 32.4581Z" fill="#001C4F"/>
<path d="M69.3425 36.8838H66.3915C66.0002 36.8838 65.6249 37.0392 65.3482 37.316C65.0715 37.5927 64.916 37.968 64.916 38.3593C64.916 38.7506 65.0715 39.1259 65.3482 39.4026C65.6249 39.6793 66.0002 39.8348 66.3915 39.8348H69.3425C69.7338 39.8348 70.1091 39.6793 70.3859 39.4026C70.6626 39.1259 70.818 38.7506 70.818 38.3593C70.818 37.968 70.6626 37.5927 70.3859 37.316C70.1091 37.0392 69.7338 36.8838 69.3425 36.8838Z" fill="#001C4F"/>
<path d="M20.6557 16.2293H25.0807C25.472 16.2293 25.8473 16.0739 26.124 15.7972C26.4007 15.5204 26.5562 15.1451 26.5562 14.7538C26.5562 14.3625 26.4007 13.9872 26.124 13.7105C25.8473 13.4338 25.472 13.2783 25.0807 13.2783H20.6557C20.2643 13.2783 19.889 13.4338 19.6123 13.7105C19.3356 13.9872 19.1802 14.3625 19.1802 14.7538C19.1802 15.1451 19.3356 15.5204 19.6123 15.7972C19.889 16.0739 20.2643 16.2293 20.6557 16.2293Z" fill="#001C4F"/>
<path d="M87.0465 0H1.47549C1.0843 0 0.709124 0.155401 0.432508 0.432018C0.155892 0.708634 0.000490089 1.08381 0.000490089 1.475V17.7C-3.55029e-05 18.2816 0.114058 18.8575 0.33625 19.395C0.558442 19.9324 0.884376 20.4208 1.29542 20.8322C1.70646 21.2437 2.19456 21.57 2.73181 21.7927C3.26906 22.0154 3.84492 22.13 4.42649 22.13H84.1005C85.2742 22.1287 86.3993 21.6612 87.2283 20.8305C88.0574 19.9997 88.5226 18.8737 88.5215 17.7V1.475C88.5215 1.08381 88.3661 0.708634 88.0895 0.432018C87.8129 0.155401 87.4377 0 87.0465 0ZM42.7855 19.18H4.42649C4.23237 19.18 4.04016 19.1417 3.86087 19.0672C3.68159 18.9928 3.51877 18.8837 3.38174 18.7462C3.2447 18.6087 3.13616 18.4455 3.06233 18.266C2.9885 18.0865 2.95083 17.8941 2.95149 17.7V2.951H42.7855V19.18ZM85.5715 17.7C85.5721 17.8938 85.5346 18.0858 85.461 18.2651C85.3875 18.4443 85.2793 18.6074 85.1427 18.7448C85.006 18.8822 84.8437 18.9914 84.6649 19.0661C84.4861 19.1408 84.2943 19.1795 84.1005 19.18H45.7365V2.951H85.5715V17.7Z" fill="#001C4F"/>
<path d="M63.4403 16.2293H67.8653C68.2567 16.2293 68.632 16.0739 68.9087 15.7972C69.1854 15.5204 69.3408 15.1451 69.3408 14.7538C69.3408 14.3625 69.1854 13.9872 68.9087 13.7105C68.632 13.4338 68.2567 13.2783 67.8653 13.2783H63.4403C63.049 13.2783 62.6737 13.4338 62.397 13.7105C62.1203 13.9872 61.9648 14.3625 61.9648 14.7538C61.9648 15.1451 62.1203 15.5204 62.397 15.7972C62.6737 16.0739 63.049 16.2293 63.4403 16.2293Z" fill="#001C4F"/>
<path d="M87.0564 53.1132L81.1444 53.0762C79.9705 53.0748 78.8442 53.5399 78.0133 54.369C77.1823 55.1981 76.7147 56.3233 76.7134 57.4972C76.7121 58.671 77.1771 59.7973 78.0062 60.6283C78.8353 61.4593 79.9605 61.9269 81.1344 61.9282L87.0344 61.9652H87.0444C87.4352 61.9646 87.8099 61.809 88.0861 61.5325C88.3623 61.2559 88.5174 60.881 88.5174 60.4902V54.5902C88.5174 54.2007 88.3634 53.827 88.0889 53.5507C87.8144 53.2744 87.4418 53.1178 87.0524 53.1152L87.0564 53.1132ZM85.5714 59.0012L81.1454 58.9732C80.9516 58.9738 80.7596 58.9363 80.5804 58.8628C80.4011 58.7892 80.2381 58.6811 80.1006 58.5445C79.8229 58.2688 79.6662 57.894 79.6649 57.5027C79.6636 57.1114 79.8177 56.7355 80.0935 56.4579C80.3693 56.1802 80.7441 56.0235 81.1354 56.0222L85.5714 56.0502V59.0012Z" fill="#001C4F"/>
</svg>
