<svg width="79" height="90" viewBox="0 0 79 90" fill="none" xmlns="http://www.w3.org/2000/svg">
<path d="M75.0894 15.4033L60.3081 7.42132L50.4538 2.10002L47.6946 0.621884C45.034 -0.757712 41.585 0.227713 40.1068 2.88836L23.9458 32.7468H4.43442C1.97085 32.7468 0 34.7176 0 37.1812V45.0646V85.5656C0 88.0292 1.97085 90 4.43442 90H66.8119C69.2754 90 71.2463 88.0292 71.2463 85.5656V74.2332H73.1186C74.104 74.2332 74.8924 73.4448 74.8924 72.4594V59.5503C74.8924 58.5649 74.104 57.7766 73.1186 57.7766H71.2463V45.0646C71.2463 42.9952 69.7681 41.2214 67.7973 40.7287L77.3559 22.991C78.8341 20.3304 77.8486 16.8814 75.0894 15.4033ZM43.2602 4.56359C43.7529 3.57816 45.1325 3.18399 46.1179 3.6767L48.8771 5.15484L29.6613 40.6302H23.7488L43.2602 4.56359ZM55.578 8.80092L38.4316 40.6302H33.603L51.9319 6.83007L55.578 8.80092ZM4.43442 36.1958H22.1721L19.8071 40.5316H4.43442C4.13879 40.5316 3.74462 40.5316 3.44899 40.6302V37.0826C3.44899 36.6885 3.84316 36.1958 4.43442 36.1958ZM71.3448 61.2256V70.6857H71.2463H60.9979C60.0124 70.6857 59.2241 69.8973 59.2241 68.9119V62.9008C59.2241 61.9154 60.0124 61.127 60.9979 61.127H71.2463H71.3448V61.2256ZM60.9979 57.7766C58.1401 57.7766 55.7751 60.1416 55.7751 62.9993V69.0104C55.7751 71.8682 58.1401 74.2332 60.9979 74.2332H67.7973V85.5656C67.7973 86.0583 67.4031 86.551 66.8119 86.551H4.43442C3.9417 86.551 3.44899 86.1568 3.44899 85.5656V45.0646C3.44899 44.5719 3.84316 44.0792 4.43442 44.0792H20.7925H27.789H40.501H64.9396H66.8119C67.3046 44.0792 67.7973 44.4733 67.7973 45.0646V57.7766H60.9979ZM74.3011 21.3158L63.8556 40.6302H42.3733L58.6328 10.4761L73.4142 18.4581C74.4982 19.0493 74.8924 20.3304 74.3011 21.3158Z" fill="#001C4F"/>
<path d="M67.6017 19.6407L66.7148 19.148C64.5469 17.9654 61.5906 18.8523 60.4081 21.0203L59.3242 23.0897C58.7329 24.1736 58.6344 25.4547 58.93 26.6372C59.3242 27.8197 60.1125 28.8051 61.1965 29.3964L62.0834 29.8891C62.7731 30.2833 63.5615 30.4804 64.2513 30.4804C65.9265 30.4804 67.5032 29.5935 68.3901 28.0168L69.474 25.9474C70.0653 24.8634 70.1638 23.5824 69.8682 22.3999C69.474 21.2174 68.6857 20.2319 67.6017 19.6407ZM66.4192 24.2722L65.3353 26.3416C65.0396 26.9328 64.3498 27.1299 63.7586 26.8343L62.8717 26.3416C62.5761 26.243 62.379 25.9474 62.2804 25.6518C62.1819 25.3561 62.1819 25.0605 62.379 24.7649L63.4629 22.6955C63.66 22.3013 64.0542 22.1042 64.4484 22.1042C64.6455 22.1042 64.8425 22.1042 65.0396 22.2028L65.9265 22.6955C66.2221 22.794 66.4192 23.0897 66.5178 23.3853C66.6163 23.6809 66.6163 23.9765 66.4192 24.2722Z" fill="#001C4F"/>
</svg>
