<svg width="29" height="28" viewBox="0 0 29 28" fill="none" xmlns="http://www.w3.org/2000/svg">
<path fill-rule="evenodd" clip-rule="evenodd" d="M20.9811 27.4986H20.9426C18.9846 27.467 12.1839 26.95 6.82411 21.5903C1.46436 16.2305 0.945985 9.42975 0.91436 7.47175C0.90336 6.73887 1.19761 6.02113 1.72011 5.49863L5.44773 1.76962C5.7106 1.52151 6.05839 1.3833 6.41986 1.3833C6.78133 1.3833 7.12912 1.52151 7.39198 1.76962L12.892 7.26963C13.0198 7.39721 13.1212 7.54874 13.1904 7.71555C13.2595 7.88236 13.2951 8.06117 13.2951 8.24175C13.2951 8.42233 13.2595 8.60114 13.1904 8.76795C13.1212 8.93476 13.0198 9.08629 12.892 9.21387L10.7002 11.4056C11.0027 12.4218 11.6902 14.3179 12.892 15.5196C14.0937 16.7214 15.9899 17.4089 17.006 17.7114L19.1977 15.5196C19.3253 15.3918 19.4768 15.2904 19.6437 15.2213C19.8105 15.1521 19.9893 15.1165 20.1699 15.1165C20.3504 15.1165 20.5293 15.1521 20.6961 15.2213C20.8629 15.2904 21.0144 15.3918 21.142 15.5196L26.642 21.0196C26.7698 21.1472 26.8712 21.2987 26.9404 21.4655C27.0095 21.6324 27.0451 21.8112 27.0451 21.9917C27.0451 22.1723 27.0095 22.3511 26.9404 22.518C26.8712 22.6848 26.7698 22.8363 26.642 22.9639L22.913 26.6929C22.3932 27.2126 21.7071 27.4986 20.9811 27.4986ZM9.97698 8.24175L6.42123 4.686L6.42108 4.68615L6.42094 4.686L3.66406 7.44288C3.69156 9.12451 4.13981 15.0164 8.76806 19.6446C13.1652 24.043 18.7053 24.6675 20.7006 24.7413C20.7986 24.745 20.8881 24.7473 20.9684 24.7486C20.9685 24.7486 20.9686 24.7486 20.9687 24.7486L23.727 21.9917L20.1712 18.436L20.1711 18.4361L20.1709 18.436L18.3931 20.2139C18.3635 20.2437 18.3327 20.272 18.3007 20.2988C18.1583 20.4178 17.9926 20.5068 17.8138 20.56C17.5948 20.6251 17.3629 20.6342 17.1394 20.5865C16.9812 20.5535 13.2316 19.7464 10.9491 17.4639C8.66661 15.1814 7.85948 11.4318 7.82648 11.2736C7.77905 11.0501 7.7883 10.8183 7.85338 10.5993C7.90346 10.4307 7.98537 10.2739 8.09417 10.1371M28.413 12.3736H25.663C25.663 6.79662 21.6095 2.75 16.0242 2.75V0C23.0876 0 28.413 5.31987 28.413 12.3736Z" fill="#89BB2A"/>
<path d="M16.0391 8.25C18.9307 8.25 20.1641 9.48338 20.1641 12.375H22.9141C22.9141 7.94063 20.4734 5.5 16.0391 5.5V8.25Z" fill="#89BB2A"/>
</svg>
