<svg width="17" height="16" viewBox="0 0 17 16" fill="none" xmlns="http://www.w3.org/2000/svg">
<path d="M1.30762 0.78125L4.55762 0.03125C4.72428 -0.0104167 4.89095 0.0104167 5.05762 0.09375C5.22428 0.177083 5.33887 0.291667 5.40137 0.4375L6.90137 3.9375C6.96387 4.10417 6.97428 4.27083 6.93262 4.4375C6.89095 4.58333 6.80762 4.70833 6.68262 4.8125L4.80762 6.375C5.37012 7.58333 6.13053 8.66667 7.08887 9.625C8.02637 10.5833 9.1097 11.3438 10.3389 11.9062L11.8701 10.0312C11.9743 9.88542 12.1097 9.80208 12.2764 9.78125C12.443 9.73958 12.5993 9.75 12.7451 9.8125L16.2451 11.3125C16.4118 11.375 16.5368 11.4896 16.6201 11.6562C16.7035 11.8229 16.7243 11.9896 16.6826 12.1562L15.9326 15.4062C15.9118 15.5938 15.8285 15.7396 15.6826 15.8438C15.5368 15.9479 15.3805 16 15.2139 16C12.5889 16 10.1514 15.3438 7.90137 14.0312C5.71387 12.7396 3.97428 11 2.68262 8.8125C1.37012 6.5625 0.713867 4.125 0.713867 1.5C0.713867 1.33333 0.765951 1.17708 0.870117 1.03125C0.974284 0.885417 1.12012 0.802083 1.30762 0.78125Z" fill="#89BB2A"/>
</svg>
