<svg width="32" height="48" viewBox="0 0 32 48" fill="none" xmlns="http://www.w3.org/2000/svg">
<path d="M17.09 0H14.29C10.5025 0.00555209 6.87157 1.51234 4.19299 4.19016C1.51441 6.86799 0.00661243 10.4985 0 14.286V32.778C0.00660953 36.5649 1.51386 40.1947 4.19157 42.8724C6.86929 45.5501 10.4991 47.0574 14.286 47.064H17.086C20.8735 47.0584 24.5044 45.5517 27.183 42.8738C29.8616 40.196 31.3694 36.5655 31.376 32.778V14.286C31.3694 10.4991 29.8621 6.86929 27.1844 4.19157C24.5067 1.51386 20.8769 0.00660953 17.09 0ZM14.29 44.368C11.2175 44.3635 8.27217 43.141 6.0996 40.9684C3.92703 38.7958 2.7045 35.8505 2.7 32.778V14.286C2.70555 11.2149 3.928 8.27119 6.09959 6.09959C8.27119 3.928 11.2149 2.70555 14.286 2.7H17.086C20.1585 2.70344 23.1043 3.92495 25.2776 6.09677C27.4509 8.26859 28.6744 11.2135 28.68 14.286V32.778C28.6755 35.8505 27.453 38.7958 25.2804 40.9684C23.1078 43.141 20.1625 44.3635 17.09 44.368H14.29Z" fill="#89BB2A"/>
<path d="M22.3731 22.1029C22.2517 22.231 22.1054 22.3331 21.9431 22.4028C21.7809 22.4726 21.6062 22.5086 21.4296 22.5086C21.2531 22.5086 21.0783 22.4726 20.9161 22.4028C20.7539 22.3331 20.6076 22.231 20.4861 22.1029L17.0361 18.3289V32.0219C17.0361 32.3799 16.8939 32.7233 16.6407 32.9765C16.3875 33.2296 16.0442 33.3719 15.6861 33.3719C15.3281 33.3719 14.9847 33.2296 14.7315 32.9765C14.4784 32.7233 14.3361 32.3799 14.3361 32.0219V18.2749L10.8861 22.0489C10.7647 22.177 10.6184 22.2791 10.4561 22.3488C10.2939 22.4186 10.1192 22.4546 9.94263 22.4546C9.76605 22.4546 9.59133 22.4186 9.42912 22.3488C9.26691 22.2791 9.1206 22.177 8.99913 22.0489C8.79065 21.8099 8.67578 21.5035 8.67578 21.1864C8.67578 20.8693 8.79065 20.5629 8.99913 20.3239L14.7181 14.0119C14.8396 13.8837 14.9859 13.7817 15.1481 13.7119C15.3103 13.6422 15.4851 13.6062 15.6616 13.6062C15.8382 13.6062 16.0129 13.6422 16.1751 13.7119C16.3374 13.7817 16.4837 13.8837 16.6051 14.0119L22.3731 20.3199C22.5833 20.5694 22.6985 20.8852 22.6985 21.2114C22.6985 21.5376 22.5833 21.8534 22.3731 22.1029Z" fill="#89BB2A"/>
</svg>
