<svg width="16" height="20" viewBox="0 0 16 20" fill="none" xmlns="http://www.w3.org/2000/svg">
<path d="M14.68 0C14.1917 0 13.7453 0.26784 13.5149 0.69888C12.3254 2.92992 11.3421 5.27104 10.5747 7.68H4.16C3.63072 7.68 3.2 8.11072 3.2 8.64C3.2 9.16928 3.63072 9.6 4.16 9.6H10.0122C10.0016 9.64 9.98944 9.67936 9.97888 9.71936L9.85504 10.1901C9.79648 10.4115 9.74848 10.6355 9.71008 10.8608L2.90656 10.2691C2.6848 10.2496 2.46016 10.24 2.24 10.24C1.00512 10.24 0 11.2451 0 12.48C0 13.7149 1.00512 14.72 2.24 14.72H5.76V15.04C5.76 15.5693 6.19072 16 6.72 16H7.04V16.64H6.72C6.19072 16.64 5.76 17.0707 5.76 17.6V17.92H3.84C3.31072 17.92 2.88 18.3507 2.88 18.88C2.88 19.4093 3.31072 19.84 3.84 19.84H12.16C12.6893 19.84 13.12 19.4093 13.12 18.88C13.12 18.3507 12.6893 17.92 12.16 17.92H10.24V17.6C10.24 17.0707 9.80928 16.64 9.28 16.64H8.96V16H9.28C9.80928 16 10.24 15.5693 10.24 15.04V14.72H12.1421C12.8618 14.72 13.4963 14.2352 13.6858 13.5408C14.1565 11.8147 14.5011 10.04 14.7098 8.26432L14.7254 8.12992C14.9309 6.38656 15.2691 4.64288 15.7315 2.9472L15.831 2.58272C15.943 2.1712 16 1.74656 16 1.32C16 0.59232 15.4077 0 14.68 0ZM4.16 8.96C3.98336 8.96 3.84 8.81664 3.84 8.64C3.84 8.46336 3.98336 8.32 4.16 8.32H10.3763C10.3123 8.5328 10.2512 8.74624 10.1907 8.96H4.16ZM12.48 18.88C12.48 19.0566 12.3366 19.2 12.16 19.2H3.84C3.66336 19.2 3.52 19.0566 3.52 18.88C3.52 18.7034 3.66336 18.56 3.84 18.56H12.16C12.3366 18.56 12.48 18.7034 12.48 18.88ZM9.6 15.04C9.6 15.2166 9.45664 15.36 9.28 15.36H8.64C8.46304 15.36 8.32 15.503 8.32 15.68V16.96C8.32 17.137 8.46304 17.28 8.64 17.28H9.28C9.45664 17.28 9.6 17.4234 9.6 17.6V17.92H6.4V17.6C6.4 17.4234 6.54336 17.28 6.72 17.28H7.36C7.53696 17.28 7.68 17.137 7.68 16.96V15.68C7.68 15.503 7.53696 15.36 7.36 15.36H6.72C6.54336 15.36 6.4 15.2166 6.4 15.04V14.72H9.6V15.04ZM15.2134 2.41472L15.1139 2.7792C14.6432 4.50528 14.2986 6.28 14.0899 8.05568L14.0742 8.19008C13.8688 9.93344 13.5306 11.6771 13.0682 13.3728C12.9549 13.7891 12.5741 14.08 12.1421 14.08H2.24C1.35776 14.08 0.64 13.3622 0.64 12.48C0.64 11.5978 1.35776 10.88 2.24 10.88C2.44192 10.88 2.64736 10.889 2.85088 10.9066L9.62848 11.496C9.6096 11.7165 9.6 11.9382 9.6 12.16H10.24C10.24 11.5507 10.3187 10.9424 10.4736 10.353L10.5974 9.88224C11.4086 6.80064 12.5802 3.81216 14.0797 1C14.1984 0.77824 14.4285 0.64 14.68 0.64C15.055 0.64 15.36 0.94496 15.36 1.32C15.36 1.6896 15.3107 2.05792 15.2134 2.41472Z" fill="#BCBCBC"/>
</svg>
