<svg width="28" height="28" viewBox="0 0 28 28" fill="none" xmlns="http://www.w3.org/2000/svg">
<g filter="url(#filter0_d)">
<path d="M14 4.03516C12.9688 4.03516 12.0234 4.29297 11.1641 4.80859C10.3047 5.29557 9.61719 5.98307 9.10156 6.87109C8.58594 7.73047 8.32812 8.67578 8.32812 9.70703C8.32812 10.7956 8.61458 11.7982 9.1875 12.7148L9.31641 12.9297L8.75781 14.9922L10.9062 14.4336L11.1211 14.5625C12.0091 15.1068 12.9688 15.3646 14 15.3359C15.0312 15.3359 15.9766 15.0924 16.8359 14.6055C17.724 14.0898 18.4258 13.4023 18.9414 12.543C19.457 11.6549 19.7148 10.7096 19.7148 9.70703C19.7148 8.96224 19.5573 8.24609 19.2422 7.55859C18.9557 6.84245 18.5404 6.22656 17.9961 5.71094C17.4518 5.16667 16.8359 4.7513 16.1484 4.46484C15.4609 4.17839 14.7448 4.03516 14 4.03516ZM17.3516 12.1133C17.2656 12.3138 17.0938 12.5 16.8359 12.6719C16.5781 12.8151 16.3633 12.901 16.1914 12.9297C15.9049 12.987 15.6185 12.987 15.332 12.9297C15.0456 12.8724 14.6445 12.7292 14.1289 12.5C13.069 12.0417 12.1094 11.1966 11.25 9.96484V9.92188C10.763 9.32031 10.5195 8.7474 10.5195 8.20312C10.5195 7.65885 10.7201 7.1862 11.1211 6.78516V6.74219C11.2643 6.59896 11.4219 6.52734 11.5938 6.52734H11.9375C12.1094 6.52734 12.224 6.6276 12.2812 6.82812L12.8398 8.07422C12.8971 8.1888 12.8971 8.28906 12.8398 8.375C12.7539 8.57552 12.625 8.76172 12.4531 8.93359C12.3672 9.01953 12.3099 9.09115 12.2812 9.14844C12.2812 9.17708 12.2956 9.23438 12.3242 9.32031C12.6393 9.83594 12.9831 10.2513 13.3555 10.5664C13.6419 10.7956 14.0716 11.0534 14.6445 11.3398C14.8164 11.4258 14.9453 11.4115 15.0312 11.2969C15.2891 11.0104 15.4609 10.7956 15.5469 10.6523C15.6328 10.5091 15.7474 10.4661 15.8906 10.5234C16.0625 10.5807 16.4635 10.7812 17.0938 11.125L17.1797 11.168C17.3229 11.2253 17.4089 11.2826 17.4375 11.3398C17.4661 11.3685 17.4661 11.4688 17.4375 11.6406C17.4375 11.7839 17.4089 11.9414 17.3516 12.1133ZM21.5625 0.125H6.4375C5.86458 0.125 5.3776 0.325521 4.97656 0.726562C4.57552 1.1276 4.375 1.61458 4.375 2.1875V17.3125C4.375 17.8854 4.57552 18.3724 4.97656 18.7734C5.3776 19.1745 5.86458 19.375 6.4375 19.375H21.5625C22.1354 19.375 22.6224 19.1745 23.0234 18.7734C23.4245 18.3724 23.625 17.8854 23.625 17.3125V2.1875C23.625 1.61458 23.4245 1.1276 23.0234 0.726562C22.6224 0.325521 22.1354 0.125 21.5625 0.125ZM14 16.4961C12.8255 16.4961 11.737 16.224 10.7344 15.6797L7.125 16.625L8.11328 13.1016C7.48307 12.0417 7.16797 10.9102 7.16797 9.70703C7.16797 8.47526 7.46875 7.34375 8.07031 6.3125C8.70052 5.2526 9.53125 4.42188 10.5625 3.82031C11.6224 3.1901 12.7682 2.875 14 2.875C14.9167 2.875 15.7904 3.04688 16.6211 3.39062C17.4518 3.73438 18.1823 4.23568 18.8125 4.89453C19.4714 5.52474 19.9727 6.25521 20.3164 7.08594C20.6888 7.91667 20.875 8.79036 20.875 9.70703C20.875 10.9388 20.5599 12.0703 19.9297 13.1016C19.3281 14.1328 18.4974 14.9635 17.4375 15.5938C16.3776 16.1953 15.2318 16.4961 14 16.4961Z" fill="#89BB2A"/>
</g>
<defs>
<filter id="filter0_d" x="0.375" y="0.125" width="27.25" height="27.25" filterUnits="userSpaceOnUse" color-interpolation-filters="sRGB">
<feFlood flood-opacity="0" result="BackgroundImageFix"/>
<feColorMatrix in="SourceAlpha" type="matrix" values="0 0 0 0 0 0 0 0 0 0 0 0 0 0 0 0 0 0 127 0"/>
<feOffset dy="4"/>
<feGaussianBlur stdDeviation="2"/>
<feColorMatrix type="matrix" values="0 0 0 0 0 0 0 0 0 0 0 0 0 0 0 0 0 0 0.25 0"/>
<feBlend mode="normal" in2="BackgroundImageFix" result="effect1_dropShadow"/>
<feBlend mode="normal" in="SourceGraphic" in2="effect1_dropShadow" result="shape"/>
</filter>
</defs>
</svg>
